<svg width="62" height="51" viewBox="0 0 62 51" fill="none" xmlns="http://www.w3.org/2000/svg">
<rect width="62" height="51" fill="#F7F9FC"/>
<path fill-rule="evenodd" clip-rule="evenodd" d="M31.0091 8C24.8182 8 19.8135 13.0416 19.8135 19.2788C19.8135 24.2646 23.0202 28.4849 27.4688 29.9786C28.0249 30.0909 28.2287 29.7359 28.2287 29.4373C28.2287 29.1758 28.2103 28.2796 28.2103 27.3457C25.096 28.0181 24.4474 26.0012 24.4474 26.0012C23.9469 24.694 23.2054 24.3581 23.2054 24.3581C22.186 23.6671 23.2796 23.6671 23.2796 23.6671C24.4103 23.7419 25.0036 24.8249 25.0036 24.8249C26.0044 26.5427 27.617 26.0573 28.2658 25.7585C28.3584 25.0302 28.6551 24.5261 28.9703 24.246C26.4863 23.9845 23.8729 23.0136 23.8729 18.6812C23.8729 17.4487 24.3175 16.4404 25.022 15.6562C24.9108 15.3762 24.5215 14.2182 25.1333 12.6683C25.1333 12.6683 26.0786 12.3695 28.2101 13.8261C29.1227 13.5792 30.0638 13.4536 31.0091 13.4525C31.9544 13.4525 32.9181 13.5834 33.8079 13.8261C35.9396 12.3695 36.8849 12.6683 36.8849 12.6683C37.4968 14.2182 37.1072 15.3762 36.9961 15.6562C37.7191 16.4404 38.1454 17.4487 38.1454 18.6812C38.1454 23.0136 35.532 23.9657 33.0295 24.246C33.4374 24.6008 33.7894 25.2729 33.7894 26.3374C33.7894 27.8499 33.771 29.0638 33.771 29.4371C33.771 29.7359 33.975 30.0909 34.531 29.9788C38.9795 28.4847 42.1862 24.2646 42.1862 19.2788C42.2046 13.0416 37.1815 8 31.0091 8Z" fill="#24292F"/>
<path d="M21.9185 41.084C21.4565 41.084 21.0528 40.979 20.7075 40.769C20.3621 40.559 20.0938 40.265 19.9025 39.887C19.7111 39.509 19.6155 39.068 19.6155 38.564C19.6155 38.0647 19.7135 37.6237 19.9095 37.241C20.1055 36.8583 20.3831 36.5597 20.7425 36.345C21.1065 36.1257 21.5358 36.016 22.0305 36.016C22.5905 36.016 23.0571 36.1513 23.4305 36.422C23.8038 36.6927 24.0465 37.066 24.1585 37.542H23.3185C23.2438 37.2807 23.0968 37.0753 22.8775 36.926C22.6581 36.7767 22.3758 36.702 22.0305 36.702C21.5171 36.702 21.1135 36.8677 20.8195 37.199C20.5255 37.5303 20.3785 37.9877 20.3785 38.571C20.3785 39.1543 20.5231 39.6093 20.8125 39.936C21.1018 40.2627 21.4868 40.426 21.9675 40.426C22.4528 40.426 22.8168 40.2883 23.0595 40.013C23.3068 39.7377 23.4515 39.3713 23.4935 38.914H22.1635V38.34H24.2425V41H23.5635L23.5005 40.279C23.3371 40.5357 23.1318 40.734 22.8845 40.874C22.6371 41.014 22.3151 41.084 21.9185 41.084ZM25.535 36.87C25.395 36.87 25.2783 36.828 25.185 36.744C25.0963 36.6553 25.052 36.5457 25.052 36.415C25.052 36.2843 25.0963 36.177 25.185 36.093C25.2783 36.0043 25.395 35.96 25.535 35.96C25.675 35.96 25.7893 36.0043 25.878 36.093C25.9713 36.177 26.018 36.2843 26.018 36.415C26.018 36.5457 25.9713 36.6553 25.878 36.744C25.7893 36.828 25.675 36.87 25.535 36.87ZM25.164 41V37.528H25.906V41H25.164ZM28.3415 41C28.0008 41 27.7302 40.9183 27.5295 40.755C27.3288 40.587 27.2285 40.2907 27.2285 39.866V38.151H26.6335V37.528H27.2285L27.3195 36.646H27.9705V37.528H28.9505V38.151H27.9705V39.866C27.9705 40.0573 28.0102 40.1903 28.0895 40.265C28.1735 40.335 28.3158 40.37 28.5165 40.37H28.9155V41H28.3415ZM29.7436 41V36.1H30.4856V38.2H32.8586V36.1H33.6006V41H32.8586V38.809H30.4856V41H29.7436ZM35.8501 41.084C35.4301 41.084 35.0988 40.9533 34.8561 40.692C34.6181 40.4307 34.4991 40.041 34.4991 39.523V37.528H35.2411V39.446C35.2411 40.118 35.5164 40.454 36.0671 40.454C36.3424 40.454 36.5688 40.356 36.7461 40.16C36.9234 39.964 37.0121 39.684 37.0121 39.32V37.528H37.7541V41H37.0961L37.0401 40.391C36.9328 40.6057 36.7741 40.776 36.5641 40.902C36.3588 41.0233 36.1208 41.084 35.8501 41.084ZM40.651 41.084C40.3803 41.084 40.14 41.0303 39.93 40.923C39.7247 40.8157 39.5613 40.664 39.44 40.468L39.363 41H38.698V35.96H39.44V38.067C39.552 37.9037 39.706 37.759 39.902 37.633C40.098 37.507 40.35 37.444 40.658 37.444C40.994 37.444 41.2903 37.5233 41.547 37.682C41.8037 37.8407 42.0043 38.0577 42.149 38.333C42.2983 38.6083 42.373 38.921 42.373 39.271C42.373 39.621 42.2983 39.9337 42.149 40.209C42.0043 40.4797 41.8037 40.6943 41.547 40.853C41.2903 41.007 40.9917 41.084 40.651 41.084ZM40.525 40.44C40.8423 40.44 41.1037 40.3327 41.309 40.118C41.5143 39.8987 41.617 39.614 41.617 39.264C41.617 39.0353 41.5703 38.8323 41.477 38.655C41.3837 38.4777 41.2553 38.34 41.092 38.242C40.9287 38.1393 40.7397 38.088 40.525 38.088C40.2077 38.088 39.9463 38.1977 39.741 38.417C39.5403 38.6363 39.44 38.9187 39.44 39.264C39.44 39.614 39.5403 39.8987 39.741 40.118C39.9463 40.3327 40.2077 40.44 40.525 40.44Z" fill="#2E2E48"/>
</svg>
