<svg width="36" height="36" viewBox="0 0 36 36" fill="none" xmlns="http://www.w3.org/2000/svg">
<g clip-path="url(#clip0_307_1403)">
<rect width="36" height="36" fill="#EFE2F9"/>
<path d="M15.5812 8.18685C11.8924 8.90678 8.91988 11.8719 8.19252 15.5495C6.81944 22.489 13.0799 27.6622 17.7967 26.9311C19.3256 26.6936 20.0752 24.9049 19.3738 23.5281C18.5166 21.8433 19.7412 19.8765 21.6339 19.8765H24.5915C25.9201 19.8765 26.9963 18.778 27 17.4532C26.9814 11.6047 21.6598 7.00304 15.5812 8.18685ZM11.5621 19.8765C10.9053 19.8765 10.3746 19.3458 10.3746 18.689C10.3746 18.0321 10.9053 17.5015 11.5621 17.5015C12.219 17.5015 12.7497 18.0321 12.7497 18.689C12.7497 19.3458 12.219 19.8765 11.5621 19.8765ZM12.7497 15.1264C12.0928 15.1264 11.5621 14.5957 11.5621 13.9389C11.5621 13.282 12.0928 12.7514 12.7497 12.7514C13.4065 12.7514 13.9372 13.282 13.9372 13.9389C13.9372 14.5957 13.4065 15.1264 12.7497 15.1264ZM17.4998 12.7514C16.8429 12.7514 16.3122 12.2207 16.3122 11.5639C16.3122 10.907 16.8429 10.3763 17.4998 10.3763C18.1566 10.3763 18.6873 10.907 18.6873 11.5639C18.6873 12.2207 18.1566 12.7514 17.4998 12.7514ZM22.2499 15.1264C21.593 15.1264 21.0624 14.5957 21.0624 13.9389C21.0624 13.282 21.593 12.7514 22.2499 12.7514C22.9067 12.7514 23.4374 13.282 23.4374 13.9389C23.4374 14.5957 22.9067 15.1264 22.2499 15.1264Z" fill="#9251F7"/>
</g>
<defs>
<clipPath id="clip0_307_1403">
<rect width="36" height="36" rx="18" fill="white"/>
</clipPath>
</defs>
</svg>
