<svg width="698" height="698" viewBox="0 0 698 698" fill="none" xmlns="http://www.w3.org/2000/svg">
<path fill-rule="evenodd" clip-rule="evenodd" d="M698 349C698 541.747 541.748 698 349 698C156.252 698 0 541.747 0 349C0 156.253 156.252 0 349 0C541.748 0 698 156.253 698 349ZM483.1 508.086C493.033 498.143 498 486.543 498 473.286V224.714C498 211.457 493.033 199.857 483.1 189.914C473.167 179.971 461.578 175 448.333 175H200V224.714H249.667L200 274.429V523H448.333C461.578 523 473.167 518.029 483.1 508.086ZM441.238 224.714V473.286H299.333L256.762 515.898V224.714H441.238Z" fill="#DED0E9"/>
</svg>
