<svg id="svg" version="1.1" xmlns="http://www.w3.org/2000/svg" xmlns:xlink="http://www.w3.org/1999/xlink" width="400" height="400" viewBox="0, 0, 400,400"><g id="svgg"><path id="path0" d="M58.946 0.414 C 58.725 0.635,57.433 0.857,56.073 0.907 C 54.714 0.958,53.601 1.156,53.601 1.347 C 53.600 1.537,53.155 1.608,52.612 1.504 C 52.014 1.390,51.722 1.474,51.872 1.716 C 52.023 1.961,51.709 2.038,51.059 1.913 C 50.477 1.802,50.000 1.887,50.000 2.102 C 50.000 2.317,49.622 2.395,49.160 2.274 C 48.699 2.153,48.430 2.163,48.562 2.296 C 48.873 2.606,43.166 4.426,42.729 4.156 C 42.548 4.044,42.400 4.244,42.400 4.600 C 42.400 4.956,42.232 5.144,42.028 5.017 C 41.823 4.891,41.530 4.989,41.378 5.236 C 41.181 5.554,41.000 5.527,40.756 5.143 C 40.491 4.724,40.411 4.765,40.406 5.324 C 40.403 5.722,40.220 5.936,40.000 5.800 C 39.780 5.664,39.600 5.754,39.600 6.000 C 39.600 6.246,39.435 6.345,39.234 6.221 C 39.033 6.097,38.808 6.131,38.734 6.298 C 38.524 6.771,34.401 8.885,34.394 8.523 C 34.391 8.345,34.256 8.395,34.094 8.633 C 33.932 8.871,32.270 10.037,30.400 11.225 C 26.296 13.831,26.818 13.451,23.399 16.318 C 20.479 18.767,15.558 23.875,14.457 25.600 C 14.106 26.150,13.717 26.690,13.594 26.800 C 13.470 26.910,12.401 28.530,11.217 30.400 C 10.034 32.270,8.871 33.932,8.633 34.094 C 8.395 34.256,8.345 34.391,8.523 34.394 C 8.885 34.401,6.771 38.524,6.298 38.734 C 6.131 38.808,6.097 39.033,6.221 39.234 C 6.345 39.435,6.246 39.600,6.000 39.600 C 5.754 39.600,5.664 39.780,5.800 40.000 C 5.936 40.220,5.722 40.403,5.324 40.406 C 4.765 40.411,4.724 40.491,5.143 40.756 C 5.527 41.000,5.554 41.181,5.236 41.378 C 4.989 41.530,4.891 41.823,5.017 42.028 C 5.144 42.232,4.956 42.400,4.600 42.400 C 4.244 42.400,4.044 42.548,4.156 42.729 C 4.426 43.166,2.606 48.873,2.296 48.562 C 2.163 48.430,2.153 48.699,2.274 49.160 C 2.395 49.622,2.317 50.000,2.102 50.000 C 1.887 50.000,1.802 50.477,1.913 51.059 C 2.038 51.709,1.961 52.023,1.716 51.872 C 1.474 51.722,1.390 52.014,1.504 52.612 C 1.608 53.155,1.537 53.602,1.347 53.603 C 1.156 53.605,0.953 54.715,0.894 56.069 C 0.836 57.423,0.614 58.742,0.400 59.000 C -0.131 59.640,-0.131 341.089,0.400 341.269 C 0.612 341.341,0.834 342.523,0.893 343.897 C 0.952 345.270,1.156 346.395,1.347 346.397 C 1.537 346.398,1.608 346.845,1.504 347.388 C 1.390 347.986,1.474 348.278,1.716 348.128 C 1.961 347.977,2.038 348.291,1.913 348.941 C 1.802 349.523,1.887 350.000,2.102 350.000 C 2.317 350.000,2.399 350.360,2.284 350.801 C 2.169 351.241,2.218 351.512,2.393 351.404 C 2.569 351.296,2.823 351.790,2.958 352.504 C 3.094 353.217,3.443 354.257,3.734 354.815 C 4.026 355.373,4.235 356.228,4.199 356.715 C 4.161 357.236,4.363 357.600,4.690 357.600 C 4.997 357.600,5.144 357.768,5.017 357.972 C 4.891 358.177,4.989 358.470,5.236 358.622 C 5.554 358.819,5.527 359.000,5.143 359.244 C 4.728 359.507,4.776 359.589,5.349 359.594 C 5.974 359.599,6.014 359.701,5.592 360.209 C 5.165 360.724,5.199 360.775,5.809 360.541 C 6.280 360.361,6.438 360.415,6.263 360.698 C 6.116 360.936,6.131 361.192,6.298 361.266 C 6.771 361.476,8.885 365.599,8.523 365.606 C 8.345 365.609,8.395 365.744,8.633 365.906 C 8.871 366.068,10.040 367.730,11.230 369.600 C 13.618 373.352,13.651 373.398,16.833 377.160 C 19.156 379.906,22.683 383.279,25.160 385.123 C 25.952 385.713,26.690 386.297,26.800 386.421 C 26.910 386.544,28.573 387.625,30.495 388.823 C 32.804 390.261,33.920 391.189,33.785 391.557 C 33.627 391.989,33.705 392.011,34.134 391.655 C 34.560 391.302,34.907 391.365,35.643 391.930 C 36.697 392.738,38.034 393.362,38.500 393.264 C 38.665 393.229,38.800 393.391,38.800 393.624 C 38.800 393.857,38.980 393.936,39.200 393.800 C 39.420 393.664,39.600 393.754,39.600 394.000 C 39.600 394.246,39.780 394.336,40.000 394.200 C 40.220 394.064,40.403 394.278,40.406 394.676 C 40.411 395.235,40.491 395.276,40.756 394.857 C 41.000 394.473,41.181 394.446,41.378 394.764 C 41.530 395.011,41.823 395.109,42.028 394.983 C 42.232 394.856,42.400 395.044,42.400 395.400 C 42.400 395.756,42.548 395.956,42.729 395.844 C 43.166 395.574,48.873 397.394,48.562 397.704 C 48.430 397.837,48.699 397.847,49.160 397.726 C 49.622 397.605,50.000 397.683,50.000 397.898 C 50.000 398.113,50.477 398.198,51.059 398.087 C 51.709 397.962,52.023 398.039,51.872 398.284 C 51.722 398.526,52.014 398.610,52.612 398.496 C 53.155 398.392,53.600 398.463,53.601 398.653 C 53.601 398.844,54.703 399.041,56.050 399.092 C 57.396 399.142,58.715 399.364,58.982 399.585 C 59.636 400.128,341.084 400.144,341.269 399.600 C 341.341 399.388,342.523 399.166,343.897 399.107 C 345.270 399.048,346.395 398.844,346.397 398.653 C 346.398 398.463,346.845 398.392,347.388 398.496 C 347.986 398.610,348.278 398.526,348.128 398.284 C 347.977 398.039,348.288 397.962,348.928 398.084 C 349.569 398.207,349.880 398.129,349.728 397.884 C 349.576 397.638,349.895 397.563,350.554 397.689 C 351.145 397.802,351.531 397.797,351.412 397.679 C 351.118 397.385,356.857 395.588,357.271 395.844 C 357.452 395.956,357.600 395.756,357.600 395.400 C 357.600 395.044,357.768 394.856,357.972 394.983 C 358.177 395.109,358.470 395.011,358.622 394.764 C 358.819 394.446,359.000 394.473,359.244 394.857 C 359.507 395.272,359.589 395.224,359.594 394.651 C 359.599 394.026,359.701 393.986,360.209 394.408 C 360.726 394.837,360.775 394.799,360.534 394.157 C 360.274 393.464,360.314 393.451,361.002 394.000 C 361.415 394.330,361.631 394.396,361.482 394.146 C 361.320 393.876,361.694 393.493,362.405 393.198 C 363.062 392.926,363.600 392.534,363.600 392.328 C 363.600 392.122,363.780 392.064,364.000 392.200 C 364.220 392.336,364.400 392.246,364.400 392.000 C 364.400 391.754,364.580 391.664,364.800 391.800 C 365.020 391.936,365.200 391.835,365.200 391.575 C 365.200 391.226,365.359 391.234,365.809 391.608 C 366.307 392.021,366.381 392.012,366.215 391.557 C 365.939 390.798,372.467 386.667,372.890 387.332 C 373.090 387.646,373.190 387.585,373.194 387.145 C 373.197 386.785,374.449 385.469,375.975 384.220 C 381.006 380.104,385.694 374.686,389.228 368.900 C 390.395 366.991,391.190 366.072,391.557 366.210 C 392.012 366.380,392.021 366.307,391.608 365.809 C 391.234 365.359,391.226 365.200,391.575 365.200 C 391.835 365.200,391.936 365.020,391.800 364.800 C 391.664 364.580,391.754 364.400,392.000 364.400 C 392.246 364.400,392.336 364.220,392.200 364.000 C 392.064 363.780,392.154 363.600,392.400 363.600 C 392.646 363.600,392.736 363.420,392.600 363.200 C 392.464 362.980,392.554 362.800,392.800 362.800 C 393.046 362.800,393.136 362.620,393.000 362.400 C 392.864 362.180,392.954 362.000,393.200 362.000 C 393.446 362.000,393.517 361.789,393.358 361.532 C 393.159 361.210,393.294 361.150,393.791 361.341 C 394.429 361.586,394.449 361.539,393.957 360.934 C 393.466 360.332,393.484 360.282,394.100 360.513 C 394.887 360.807,395.081 360.180,394.300 359.865 C 393.979 359.735,394.031 359.652,394.445 359.632 C 394.883 359.610,395.056 359.290,394.984 358.634 C 394.926 358.102,395.175 357.337,395.539 356.934 C 395.903 356.530,396.206 356.020,396.212 355.800 C 396.246 354.709,396.910 352.800,397.255 352.800 C 397.471 352.800,397.547 352.638,397.425 352.441 C 397.059 351.848,397.660 349.590,398.111 349.868 C 398.343 350.012,398.404 349.930,398.249 349.679 C 397.920 349.147,398.811 344.000,399.231 344.000 C 399.392 344.000,399.427 343.280,399.309 342.400 C 399.170 341.365,399.252 340.800,399.539 340.800 C 400.173 340.800,400.174 60.092,399.540 59.327 C 399.292 59.028,399.196 58.178,399.323 57.397 C 399.463 56.535,399.387 56.000,399.125 56.000 C 398.865 56.000,398.795 55.527,398.944 54.780 C 399.078 54.109,399.033 53.656,398.844 53.773 C 398.416 54.037,397.883 50.914,398.253 50.314 C 398.415 50.052,398.339 49.991,398.062 50.162 C 397.624 50.432,397.530 50.123,397.433 48.100 C 397.415 47.715,397.294 47.310,397.164 47.200 C 396.728 46.831,395.612 43.104,395.831 42.750 C 395.950 42.558,395.782 42.400,395.459 42.400 C 395.069 42.400,394.907 42.063,394.980 41.400 C 395.057 40.703,394.894 40.398,394.445 40.394 C 393.882 40.389,393.877 40.338,394.400 40.000 C 394.905 39.674,394.881 39.611,394.251 39.606 C 393.626 39.601,393.586 39.499,394.008 38.991 C 394.432 38.480,394.405 38.423,393.840 38.640 C 393.470 38.782,393.196 38.741,393.231 38.549 C 393.367 37.802,393.170 37.288,392.408 36.410 C 391.973 35.908,391.713 35.340,391.832 35.148 C 391.950 34.957,391.846 34.800,391.600 34.800 C 391.354 34.800,391.255 34.635,391.379 34.434 C 391.503 34.233,391.455 34.008,391.271 33.934 C 391.088 33.860,389.968 32.270,388.784 30.400 C 387.600 28.530,386.530 26.910,386.406 26.800 C 386.283 26.690,385.894 26.150,385.543 25.600 C 384.513 23.986,379.617 18.852,376.776 16.407 C 375.276 15.116,374.217 13.902,374.306 13.574 C 374.432 13.109,374.379 13.114,374.030 13.600 C 373.749 13.992,373.496 14.056,373.300 13.785 C 373.135 13.556,371.470 12.401,369.600 11.217 C 367.730 10.034,366.110 8.961,366.000 8.833 C 365.890 8.705,365.530 8.541,365.200 8.469 C 364.870 8.398,363.763 7.825,362.739 7.197 C 361.715 6.569,360.742 6.178,360.575 6.328 C 360.409 6.477,360.395 6.260,360.545 5.843 C 360.777 5.202,360.726 5.164,360.209 5.592 C 359.701 6.014,359.599 5.974,359.594 5.349 C 359.589 4.776,359.507 4.728,359.244 5.143 C 359.000 5.527,358.819 5.554,358.622 5.236 C 358.470 4.989,358.177 4.891,357.972 5.017 C 357.768 5.144,357.600 4.997,357.600 4.690 C 357.600 4.363,357.236 4.161,356.715 4.199 C 356.228 4.235,355.373 4.026,354.815 3.734 C 354.257 3.443,353.217 3.094,352.504 2.958 C 351.790 2.823,351.286 2.584,351.384 2.427 C 351.481 2.269,351.254 2.141,350.880 2.142 C 348.979 2.144,347.974 1.965,348.164 1.658 C 348.281 1.470,347.931 1.401,347.388 1.504 C 346.845 1.608,346.398 1.537,346.397 1.347 C 346.395 1.156,345.270 0.952,343.897 0.893 C 342.523 0.834,341.341 0.612,341.269 0.400 C 341.085 -0.143,59.488 -0.128,58.946 0.414 M336.927 4.300 C 337.506 4.813,337.764 4.866,337.892 4.500 C 338.160 3.732,340.822 3.882,341.443 4.700 C 341.768 5.128,341.980 5.205,341.987 4.900 C 342.008 4.089,343.995 4.284,344.032 5.100 C 344.050 5.518,344.144 5.599,344.265 5.300 C 344.510 4.693,346.000 4.628,346.000 5.224 C 346.000 5.457,346.190 5.530,346.423 5.386 C 347.281 4.855,352.471 6.439,352.200 7.149 C 352.002 7.671,352.053 7.701,352.456 7.300 C 353.149 6.613,353.735 6.671,353.455 7.400 C 353.329 7.730,353.399 8.000,353.613 8.000 C 353.826 8.000,354.000 7.820,354.000 7.600 C 354.000 7.380,354.199 7.200,354.443 7.200 C 354.699 7.200,354.774 7.494,354.619 7.900 C 354.420 8.424,354.468 8.486,354.810 8.146 C 355.423 7.538,356.905 7.949,356.635 8.653 C 356.520 8.954,356.584 9.200,356.779 9.200 C 356.974 9.200,357.198 9.006,357.277 8.768 C 357.496 8.113,359.599 9.193,359.606 9.964 C 359.611 10.521,359.661 10.525,360.000 10.000 C 360.322 9.502,360.390 9.536,360.400 10.200 C 360.410 10.864,360.478 10.898,360.800 10.400 C 361.122 9.902,361.190 9.936,361.200 10.600 C 361.210 11.264,361.278 11.298,361.600 10.800 C 361.922 10.302,361.990 10.336,362.000 11.000 C 362.009 11.585,362.102 11.658,362.347 11.272 C 362.900 10.399,371.825 16.657,376.638 21.293 C 381.335 25.817,385.432 30.901,384.976 31.639 C 384.794 31.934,384.844 32.020,385.105 31.859 C 385.350 31.708,386.230 32.660,387.157 34.079 C 388.336 35.883,388.647 36.650,388.291 36.876 C 387.961 37.085,388.062 37.192,388.600 37.200 C 389.264 37.210,389.298 37.278,388.800 37.600 C 388.302 37.922,388.336 37.990,389.000 38.000 C 389.664 38.010,389.698 38.078,389.200 38.400 C 388.702 38.722,388.736 38.790,389.400 38.800 C 390.064 38.810,390.098 38.878,389.600 39.200 C 389.101 39.523,389.134 39.594,389.800 39.625 C 390.240 39.646,390.375 39.754,390.100 39.865 C 389.319 40.180,389.513 40.807,390.300 40.513 C 390.916 40.282,390.934 40.332,390.443 40.934 C 389.964 41.524,389.969 41.587,390.476 41.392 C 391.304 41.074,392.583 44.297,391.937 45.076 C 391.588 45.496,391.618 45.568,392.072 45.394 C 392.913 45.071,393.770 47.908,393.086 48.751 C 392.686 49.244,392.716 49.306,393.256 49.104 C 394.096 48.790,394.697 51.164,393.905 51.667 C 393.541 51.898,393.595 51.989,394.100 51.994 C 394.791 52.000,395.018 52.883,394.898 55.100 C 394.871 55.595,395.039 56.000,395.270 56.000 C 395.511 56.000,395.615 56.519,395.512 57.218 C 395.414 57.887,395.483 58.528,395.667 58.641 C 396.192 58.966,396.055 61.510,395.500 61.742 C 395.136 61.893,395.191 62.105,395.700 62.519 C 396.790 63.405,396.790 336.595,395.700 337.481 C 395.191 337.895,395.136 338.107,395.500 338.258 C 396.049 338.487,396.206 341.600,395.669 341.600 C 395.487 341.600,395.418 342.140,395.515 342.800 C 395.628 343.574,395.518 344.000,395.203 344.000 C 394.915 344.000,394.818 344.269,394.965 344.654 C 395.390 345.761,394.782 347.999,394.055 348.006 C 393.532 348.011,393.510 348.082,393.946 348.358 C 394.709 348.841,392.948 354.942,392.136 354.631 C 391.841 354.518,391.600 354.584,391.600 354.779 C 391.600 354.974,391.783 355.194,392.006 355.269 C 392.257 355.352,392.154 356.062,391.739 357.119 C 391.305 358.224,390.876 358.761,390.533 358.630 C 390.240 358.517,390.000 358.584,390.000 358.779 C 390.000 358.974,390.225 359.224,390.500 359.335 C 390.775 359.446,390.640 359.554,390.200 359.575 C 389.534 359.606,389.501 359.677,390.000 360.000 C 390.498 360.322,390.464 360.390,389.800 360.400 C 389.136 360.410,389.102 360.478,389.600 360.800 C 390.098 361.122,390.064 361.190,389.400 361.200 C 388.736 361.210,388.702 361.278,389.200 361.600 C 389.698 361.922,389.664 361.990,389.000 362.000 C 388.336 362.010,388.302 362.078,388.800 362.400 C 389.298 362.722,389.264 362.790,388.600 362.800 C 388.073 362.808,387.965 362.917,388.283 363.119 C 388.629 363.339,388.303 364.157,387.132 366.009 C 384.772 369.742,381.998 373.246,381.599 373.000 C 381.410 372.883,381.125 372.998,380.966 373.255 C 380.785 373.548,380.850 373.616,381.138 373.438 C 382.461 372.620,381.189 374.198,377.708 377.693 C 374.248 381.166,372.599 382.496,373.438 381.138 C 373.616 380.850,373.548 380.785,373.255 380.966 C 372.998 381.125,372.883 381.410,373.000 381.599 C 373.240 381.988,369.880 384.663,366.028 387.152 C 364.109 388.391,363.374 388.684,363.134 388.307 C 362.909 387.953,362.809 388.041,362.800 388.600 C 362.790 389.264,362.722 389.298,362.400 388.800 C 362.078 388.302,362.010 388.336,362.000 389.000 C 361.990 389.664,361.922 389.698,361.600 389.200 C 361.278 388.702,361.210 388.736,361.200 389.400 C 361.190 390.064,361.122 390.098,360.800 389.600 C 360.478 389.102,360.410 389.136,360.400 389.800 C 360.390 390.464,360.322 390.498,360.000 390.000 C 359.677 389.501,359.606 389.534,359.575 390.200 C 359.554 390.640,359.446 390.775,359.335 390.500 C 359.224 390.225,358.974 390.000,358.779 390.000 C 358.584 390.000,358.517 390.240,358.630 390.533 C 358.761 390.876,358.224 391.305,357.119 391.739 C 356.062 392.154,355.352 392.257,355.269 392.006 C 355.194 391.783,354.974 391.600,354.779 391.600 C 354.584 391.600,354.522 391.853,354.641 392.163 C 354.955 392.981,350.434 394.295,349.947 393.528 C 349.693 393.128,349.611 393.169,349.606 393.700 C 349.599 394.500,348.569 394.654,348.265 393.900 C 348.144 393.601,348.050 393.682,348.032 394.100 C 347.995 394.901,346.968 395.051,346.665 394.300 C 346.552 394.019,346.449 394.128,346.432 394.550 C 346.406 395.166,346.186 395.257,345.200 395.060 C 344.448 394.910,344.000 394.984,344.000 395.260 C 344.000 395.536,343.552 395.610,342.800 395.460 C 342.123 395.325,341.600 395.390,341.600 395.610 C 341.600 396.159,338.500 396.099,338.315 395.546 C 338.216 395.249,337.939 395.318,337.511 395.746 C 336.503 396.754,63.497 396.754,62.489 395.746 C 62.061 395.318,61.784 395.249,61.685 395.546 C 61.508 396.075,58.949 396.165,58.633 395.654 C 58.515 395.463,57.941 395.399,57.357 395.510 C 56.611 395.653,56.178 395.504,55.901 395.009 C 55.619 394.504,55.423 394.440,55.212 394.781 C 54.764 395.506,52.002 394.883,51.994 394.055 C 51.989 393.532,51.918 393.510,51.642 393.946 C 51.159 394.709,45.058 392.948,45.369 392.136 C 45.482 391.841,45.416 391.600,45.221 391.600 C 45.026 391.600,44.806 391.783,44.731 392.006 C 44.648 392.257,43.938 392.154,42.881 391.739 C 41.677 391.266,41.233 390.890,41.392 390.476 C 41.587 389.969,41.524 389.964,40.934 390.443 C 40.332 390.934,40.282 390.916,40.513 390.300 C 40.807 389.513,40.180 389.319,39.865 390.100 C 39.754 390.375,39.646 390.240,39.625 389.800 C 39.594 389.134,39.523 389.101,39.200 389.600 C 38.878 390.098,38.810 390.064,38.800 389.400 C 38.790 388.736,38.722 388.702,38.400 389.200 C 38.078 389.698,38.010 389.664,38.000 389.000 C 37.990 388.336,37.922 388.302,37.600 388.800 C 37.278 389.298,37.210 389.264,37.200 388.600 C 37.192 388.083,37.081 387.968,36.885 388.276 C 36.667 388.619,36.046 388.419,34.674 387.565 C 33.625 386.912,32.873 386.205,33.004 385.993 C 33.135 385.782,32.991 385.705,32.685 385.823 C 32.380 385.940,30.795 385.018,29.165 383.775 C 24.819 380.460,16.150 371.762,18.862 373.438 C 19.150 373.616,19.215 373.548,19.034 373.255 C 18.875 372.998,18.587 372.885,18.393 373.004 C 17.904 373.307,14.670 368.933,14.995 368.408 C 15.141 368.173,15.021 368.030,14.730 368.090 C 14.438 368.151,14.224 367.892,14.253 367.516 C 14.282 367.139,14.151 366.869,13.962 366.916 C 13.320 367.073,11.180 363.460,11.714 363.121 C 12.037 362.916,11.931 362.808,11.400 362.800 C 10.736 362.790,10.702 362.722,11.200 362.400 C 11.698 362.078,11.664 362.010,11.000 362.000 C 10.336 361.990,10.302 361.922,10.800 361.600 C 11.298 361.278,11.264 361.210,10.600 361.200 C 9.936 361.190,9.902 361.122,10.400 360.800 C 10.898 360.478,10.864 360.410,10.200 360.400 C 9.536 360.390,9.502 360.322,10.000 360.000 C 10.505 359.674,10.481 359.611,9.851 359.606 C 9.226 359.601,9.186 359.499,9.608 358.991 C 10.024 358.489,10.010 358.421,9.524 358.608 C 8.696 358.926,7.417 355.703,8.063 354.924 C 8.413 354.503,8.381 354.432,7.920 354.609 C 7.057 354.940,5.245 348.871,6.054 348.358 C 6.475 348.092,6.429 348.011,5.853 348.006 C 5.305 348.002,5.162 347.788,5.316 347.200 C 5.431 346.760,5.339 346.400,5.113 346.400 C 4.867 346.400,4.797 345.913,4.940 345.200 C 5.075 344.523,5.010 344.000,4.790 344.000 C 4.209 344.000,4.318 342.402,4.900 342.387 C 5.205 342.380,5.128 342.168,4.700 341.843 C 3.881 341.222,3.734 338.578,4.500 338.258 C 4.864 338.107,4.809 337.895,4.300 337.481 C 3.210 336.595,3.210 63.376,4.300 62.571 C 4.861 62.157,4.901 61.953,4.500 61.547 C 3.912 60.951,3.823 58.400,4.390 58.400 C 4.610 58.400,4.675 57.877,4.540 57.200 C 4.390 56.448,4.464 56.000,4.740 56.000 C 5.016 56.000,5.090 55.552,4.940 54.800 C 4.797 54.087,4.867 53.600,5.113 53.600 C 5.339 53.600,5.431 53.240,5.316 52.800 C 5.162 52.212,5.305 51.998,5.853 51.994 C 6.429 51.989,6.475 51.908,6.054 51.642 C 5.291 51.159,7.052 45.058,7.864 45.369 C 8.159 45.482,8.400 45.416,8.400 45.221 C 8.400 45.026,8.217 44.806,7.994 44.731 C 7.743 44.648,7.846 43.938,8.261 42.881 C 8.734 41.677,9.110 41.233,9.524 41.392 C 10.031 41.587,10.036 41.524,9.557 40.934 C 9.066 40.332,9.084 40.282,9.700 40.513 C 10.487 40.807,10.681 40.180,9.900 39.865 C 9.625 39.754,9.760 39.646,10.200 39.625 C 10.866 39.594,10.899 39.523,10.400 39.200 C 9.902 38.878,9.936 38.810,10.600 38.800 C 11.264 38.790,11.298 38.722,10.800 38.400 C 10.302 38.078,10.336 38.010,11.000 38.000 C 11.664 37.990,11.698 37.922,11.200 37.600 C 10.702 37.278,10.736 37.210,11.400 37.200 C 11.917 37.192,12.032 37.081,11.724 36.885 C 11.381 36.667,11.581 36.046,12.435 34.674 C 13.088 33.625,13.777 32.862,13.966 32.979 C 14.155 33.096,14.285 32.878,14.255 32.496 C 14.225 32.111,14.437 31.849,14.730 31.910 C 15.021 31.970,15.145 31.834,15.004 31.607 C 14.688 31.095,16.333 28.711,16.803 29.002 C 16.991 29.118,17.275 29.002,17.434 28.745 C 17.615 28.452,17.550 28.384,17.262 28.562 C 15.866 29.424,17.273 27.572,20.900 23.771 C 25.342 19.115,31.803 13.839,32.658 14.167 C 32.951 14.279,33.148 14.202,33.095 13.995 C 32.928 13.332,36.528 11.162,36.879 11.714 C 37.084 12.037,37.192 11.931,37.200 11.400 C 37.210 10.736,37.278 10.702,37.600 11.200 C 37.922 11.698,37.990 11.664,38.000 11.000 C 38.010 10.336,38.078 10.302,38.400 10.800 C 38.722 11.298,38.790 11.264,38.800 10.600 C 38.810 9.936,38.878 9.902,39.200 10.400 C 39.523 10.899,39.594 10.866,39.625 10.200 C 39.646 9.760,39.754 9.625,39.865 9.900 C 40.180 10.681,40.807 10.487,40.513 9.700 C 40.282 9.084,40.332 9.066,40.934 9.557 C 41.524 10.036,41.587 10.031,41.392 9.524 C 41.233 9.110,41.677 8.734,42.881 8.261 C 43.938 7.846,44.648 7.743,44.731 7.994 C 44.806 8.217,45.026 8.400,45.221 8.400 C 45.416 8.400,45.482 8.159,45.369 7.864 C 45.058 7.052,51.159 5.291,51.642 6.054 C 51.918 6.490,51.989 6.468,51.994 5.945 C 52.001 5.218,54.239 4.610,55.346 5.035 C 55.733 5.183,56.000 5.084,56.000 4.793 C 56.000 4.460,56.385 4.377,57.184 4.537 C 57.836 4.667,58.477 4.600,58.608 4.387 C 58.947 3.839,61.502 3.905,61.689 4.466 C 61.793 4.780,62.033 4.720,62.422 4.282 C 63.351 3.235,335.746 3.253,336.927 4.300 M22.589 22.900 L 19.800 25.800 22.700 23.011 C 25.394 20.420,25.783 20.000,25.489 20.000 C 25.428 20.000,24.123 21.305,22.589 22.900 M376.400 22.200 C 377.595 23.410,378.663 24.400,378.773 24.400 C 378.883 24.400,377.995 23.410,376.800 22.200 C 375.605 20.990,374.537 20.000,374.427 20.000 C 374.317 20.000,375.205 20.990,376.400 22.200 M109.200 203.397 L 109.200 320.000 167.424 320.000 C 209.894 320.000,225.573 320.120,225.374 320.443 C 225.058 320.953,226.866 320.499,227.200 319.983 C 227.311 319.814,229.237 319.584,231.481 319.473 C 233.725 319.362,235.729 319.167,235.935 319.040 C 236.141 318.913,237.455 318.761,238.855 318.704 C 240.255 318.647,241.507 318.454,241.638 318.276 C 241.770 318.098,242.786 317.918,243.896 317.876 C 245.007 317.834,245.848 317.687,245.765 317.550 C 245.547 317.187,248.767 316.733,249.286 317.053 C 249.566 317.226,249.608 317.136,249.402 316.804 C 249.161 316.413,249.340 316.334,250.128 316.484 C 250.704 316.594,251.094 316.552,250.994 316.391 C 250.770 316.028,253.147 315.520,253.641 315.825 C 253.838 315.947,254.000 315.857,254.000 315.624 C 254.000 315.391,254.168 315.200,254.374 315.200 C 254.580 315.200,255.255 314.991,255.874 314.736 C 256.493 314.481,257.225 314.308,257.500 314.353 C 257.775 314.398,258.000 314.217,258.000 313.951 C 258.000 313.685,258.118 313.585,258.263 313.730 C 258.408 313.875,258.768 313.793,259.063 313.548 C 259.458 313.220,259.600 313.221,259.600 313.551 C 259.600 313.798,259.791 314.000,260.024 314.000 C 260.257 314.000,260.344 313.832,260.217 313.628 C 260.091 313.423,260.170 313.142,260.393 313.004 C 260.617 312.866,260.800 312.943,260.800 313.176 C 260.800 313.409,260.974 313.600,261.187 313.600 C 261.401 313.600,261.460 313.300,261.319 312.934 C 261.155 312.506,261.221 312.366,261.504 312.541 C 261.747 312.691,262.063 312.621,262.208 312.387 C 262.391 312.092,262.647 312.107,263.045 312.437 C 263.517 312.829,263.570 312.780,263.345 312.157 C 263.195 311.740,263.215 311.529,263.389 311.686 C 263.563 311.843,264.074 311.713,264.525 311.397 C 265.136 310.969,265.482 310.936,265.882 311.268 C 266.291 311.608,266.373 311.581,266.229 311.157 C 266.100 310.776,267.362 309.944,270.220 308.526 C 272.622 307.334,274.412 306.653,274.428 306.926 C 274.444 307.187,274.579 307.101,274.728 306.735 C 274.878 306.370,276.511 304.993,278.357 303.675 C 282.362 300.815,287.709 295.629,290.489 291.907 C 291.595 290.426,292.685 289.329,292.912 289.469 C 293.146 289.614,293.203 289.529,293.043 289.270 C 292.659 288.648,293.535 287.113,294.082 287.451 C 294.340 287.610,294.411 287.541,294.253 287.286 C 293.902 286.719,296.434 281.574,296.918 281.873 C 297.124 282.000,297.173 281.746,297.029 281.292 C 296.886 280.840,296.999 280.246,297.286 279.942 C 297.569 279.644,297.800 279.220,297.800 279.000 C 297.800 278.040,298.938 274.800,299.276 274.800 C 299.480 274.800,299.551 274.644,299.433 274.454 C 299.158 274.009,300.544 267.524,300.880 267.681 C 301.019 267.747,301.283 267.636,301.467 267.436 C 301.660 267.224,301.590 267.192,301.300 267.359 C 300.946 267.563,300.800 267.289,300.800 266.424 C 300.800 265.603,300.997 265.200,301.400 265.200 C 301.730 265.200,302.000 265.020,302.000 264.800 C 302.000 264.580,301.820 264.400,301.600 264.400 C 300.944 264.400,301.126 261.714,301.800 261.455 C 302.466 261.200,302.631 260.000,302.000 260.000 C 301.754 260.000,301.600 258.000,301.600 254.800 C 301.600 251.600,301.754 249.600,302.000 249.600 C 302.586 249.600,302.488 248.945,301.800 248.257 C 301.065 247.523,300.987 244.805,301.700 244.787 C 301.990 244.780,301.885 244.536,301.452 244.208 C 300.917 243.803,300.754 243.292,300.882 242.421 C 300.981 241.749,300.892 241.200,300.685 241.200 C 300.478 241.200,300.388 240.664,300.484 240.010 C 300.580 239.355,300.536 238.770,300.387 238.710 C 299.907 238.516,299.528 235.600,299.982 235.600 C 300.212 235.600,300.400 235.401,300.400 235.157 C 300.400 234.914,300.150 234.810,299.844 234.928 C 299.226 235.165,298.611 233.055,299.066 232.259 C 299.210 232.007,299.180 231.935,298.998 232.099 C 298.591 232.468,297.113 228.404,297.390 227.681 C 297.501 227.393,297.426 227.260,297.224 227.385 C 296.749 227.679,296.261 226.149,296.636 225.542 C 296.804 225.269,296.750 225.184,296.505 225.335 C 296.262 225.485,295.627 224.510,294.984 222.997 C 294.377 221.568,293.682 220.397,293.440 220.394 C 293.198 220.391,293.270 220.213,293.600 220.000 C 294.113 219.669,294.098 219.611,293.500 219.606 C 293.115 219.603,292.800 219.330,292.800 219.000 C 292.800 218.670,292.598 218.400,292.351 218.400 C 292.058 218.400,292.093 218.164,292.451 217.723 C 292.824 217.263,292.840 217.143,292.500 217.347 C 291.678 217.841,291.087 217.220,291.681 216.488 C 292.070 216.007,292.075 215.922,291.700 216.147 C 290.914 216.619,290.275 216.033,290.837 215.355 C 291.218 214.896,291.195 214.827,290.721 215.009 C 290.395 215.134,289.897 214.958,289.615 214.618 C 289.333 214.278,289.206 214.000,289.333 214.000 C 289.460 214.000,289.167 213.580,288.682 213.066 C 284.491 208.628,283.209 207.110,283.395 206.807 C 283.515 206.614,283.402 206.325,283.145 206.166 C 282.852 205.985,282.784 206.050,282.962 206.338 C 283.130 206.610,282.997 206.800,282.638 206.800 C 282.080 206.800,280.934 205.255,281.162 204.810 C 281.216 204.706,281.022 204.557,280.730 204.480 C 280.379 204.387,280.403 204.482,280.800 204.763 C 281.324 205.134,281.317 205.189,280.743 205.194 C 280.381 205.197,279.982 204.930,279.855 204.600 C 279.729 204.270,279.349 204.000,279.013 204.000 C 278.676 204.000,278.400 203.820,278.400 203.600 C 278.400 203.380,278.212 203.200,277.983 203.200 C 277.570 203.200,277.033 202.823,275.605 201.533 C 275.199 201.167,274.783 200.950,274.682 201.052 C 274.226 201.508,270.880 199.454,271.074 198.838 C 271.215 198.392,271.169 198.346,270.922 198.687 C 270.440 199.352,263.109 196.835,263.386 196.100 C 263.490 195.825,263.401 195.600,263.187 195.600 C 262.974 195.600,262.800 195.780,262.800 196.000 C 262.800 196.220,262.511 196.400,262.157 196.400 C 261.710 196.400,261.596 196.187,261.781 195.700 C 261.995 195.139,261.948 195.099,261.544 195.500 C 260.833 196.205,259.862 196.136,260.145 195.400 C 260.271 195.070,260.201 194.800,259.987 194.800 C 259.774 194.800,259.600 194.980,259.600 195.200 C 259.600 195.852,258.396 195.655,258.129 194.960 C 257.828 194.174,258.847 193.434,259.283 194.121 C 259.485 194.439,259.590 194.348,259.594 193.851 C 259.599 193.226,259.701 193.186,260.209 193.608 C 260.724 194.035,260.775 194.001,260.541 193.391 C 260.350 192.894,260.410 192.759,260.732 192.958 C 260.989 193.117,261.200 193.046,261.200 192.800 C 261.200 192.554,261.380 192.464,261.600 192.600 C 261.820 192.736,262.000 192.646,262.000 192.400 C 262.000 192.154,262.180 192.064,262.400 192.200 C 262.620 192.336,262.800 192.246,262.800 192.000 C 262.800 191.754,262.980 191.664,263.200 191.800 C 263.420 191.936,263.600 191.835,263.600 191.575 C 263.600 191.226,263.759 191.234,264.209 191.608 C 264.713 192.026,264.778 192.009,264.586 191.508 C 264.398 191.018,265.371 190.198,265.914 190.388 C 265.977 190.411,266.276 190.181,266.578 189.879 C 266.880 189.578,268.088 188.717,269.263 187.967 C 272.390 185.971,272.643 185.758,276.832 181.602 C 278.940 179.511,281.280 176.884,282.032 175.763 C 282.891 174.485,283.623 173.789,284.000 173.894 C 284.480 174.027,284.493 173.985,284.063 173.684 C 283.323 173.164,284.283 171.598,285.171 171.878 C 285.630 172.022,285.664 171.977,285.298 171.713 C 284.588 171.200,287.153 165.504,287.957 165.808 C 288.380 165.968,288.408 165.891,288.071 165.485 C 287.397 164.673,288.332 161.889,289.172 162.208 C 289.675 162.400,289.701 162.347,289.300 161.944 C 288.603 161.241,288.677 160.806,289.500 160.768 C 289.918 160.750,289.999 160.656,289.700 160.535 C 289.114 160.298,289.021 159.200,289.587 159.200 C 289.801 159.200,289.861 158.904,289.722 158.542 C 289.568 158.139,289.758 157.674,290.211 157.342 C 290.619 157.044,290.739 156.800,290.476 156.800 C 289.756 156.800,289.906 155.560,290.700 154.957 C 291.128 154.632,291.205 154.420,290.900 154.413 C 290.198 154.395,290.276 152.601,291.005 151.996 C 291.385 151.680,291.476 151.328,291.249 151.047 C 290.712 150.381,290.771 138.317,291.315 137.661 C 291.655 137.252,291.599 137.031,291.081 136.741 C 290.329 136.321,290.156 134.598,290.824 134.185 C 291.094 134.019,290.998 133.741,290.562 133.421 C 290.121 133.100,289.956 132.612,290.100 132.060 C 290.224 131.588,290.153 131.095,289.943 130.965 C 289.733 130.835,289.598 130.430,289.642 130.065 C 289.687 129.699,289.579 129.067,289.403 128.660 C 289.193 128.172,289.274 127.798,289.642 127.566 C 290.082 127.287,290.042 127.211,289.457 127.206 C 288.992 127.202,288.793 126.994,288.926 126.649 C 289.042 126.346,288.928 125.888,288.672 125.632 C 288.318 125.278,288.350 125.076,288.803 124.789 C 289.310 124.469,289.294 124.411,288.700 124.406 C 287.894 124.399,287.759 123.764,288.500 123.465 C 288.799 123.344,288.718 123.250,288.300 123.232 C 287.493 123.195,287.362 122.563,288.100 122.265 C 288.399 122.144,288.318 122.050,287.900 122.032 C 287.292 122.004,286.993 121.311,287.153 120.300 C 287.179 120.135,287.039 120.000,286.843 120.000 C 286.278 120.000,285.926 118.693,286.410 118.394 C 286.711 118.208,286.634 117.678,286.157 116.679 C 285.778 115.884,285.299 115.339,285.091 115.467 C 284.881 115.597,284.954 115.851,285.257 116.044 C 285.645 116.289,285.659 116.390,285.308 116.394 C 285.038 116.397,284.456 115.694,284.016 114.832 C 283.576 113.970,282.313 112.070,281.208 110.611 C 279.040 107.747,278.943 107.563,279.700 107.747 C 279.975 107.814,280.070 107.795,279.910 107.704 C 279.751 107.614,279.513 107.566,279.383 107.597 C 279.078 107.670,275.000 103.536,275.000 103.154 C 275.000 102.996,274.836 102.717,274.636 102.533 C 274.424 102.340,274.392 102.410,274.559 102.700 C 274.999 103.464,274.117 103.295,273.517 102.500 C 273.226 102.115,272.631 101.592,272.194 101.337 C 271.757 101.083,271.449 100.664,271.510 100.407 C 271.570 100.151,271.454 100.043,271.251 100.169 C 271.048 100.294,269.375 99.453,267.535 98.298 C 265.694 97.144,263.418 95.854,262.477 95.432 C 261.295 94.901,260.837 94.482,260.993 94.075 C 261.187 93.568,261.123 93.564,260.534 94.043 C 259.932 94.534,259.882 94.516,260.113 93.900 C 260.257 93.515,260.216 93.200,260.021 93.200 C 259.826 93.200,259.603 93.390,259.526 93.623 C 259.312 94.264,258.001 93.608,257.994 92.857 C 257.989 92.365,257.906 92.329,257.662 92.714 C 257.238 93.382,256.009 92.906,255.968 92.057 C 255.948 91.642,255.862 91.584,255.735 91.900 C 255.437 92.638,254.805 92.507,254.768 91.700 C 254.750 91.282,254.656 91.201,254.535 91.500 C 254.237 92.238,253.605 92.107,253.568 91.300 C 253.550 90.882,253.456 90.801,253.335 91.100 C 253.036 91.841,252.401 91.706,252.394 90.900 C 252.390 90.442,252.285 90.361,252.091 90.667 C 251.660 91.344,248.000 90.464,248.000 89.684 C 248.000 89.220,247.882 89.200,247.418 89.585 C 246.738 90.149,245.864 89.764,246.252 89.072 C 246.431 88.754,246.342 88.763,245.979 89.100 C 245.224 89.800,244.400 89.723,244.400 88.951 C 244.400 88.422,244.290 88.393,243.805 88.796 C 243.137 89.351,241.813 89.027,242.198 88.403 C 242.335 88.181,242.257 88.000,242.024 88.000 C 241.791 88.000,241.600 88.180,241.600 88.400 C 241.600 88.921,240.121 88.920,239.799 88.399 C 239.663 88.178,239.105 88.109,238.559 88.246 C 237.907 88.410,237.313 88.264,236.824 87.821 C 236.335 87.379,235.989 87.294,235.816 87.574 C 235.445 88.174,233.941 88.081,233.045 87.403 C 232.482 86.977,232.089 86.938,231.504 87.251 C 231.030 87.505,229.903 87.559,228.659 87.387 C 227.527 87.230,200.185 87.033,167.900 86.948 L 109.200 86.795 109.200 203.397 M219.600 120.353 C 219.600 120.548,219.960 120.801,220.400 120.916 C 220.840 121.031,221.200 120.962,221.200 120.763 C 221.200 120.089,224.086 120.369,224.686 121.100 C 225.001 121.485,225.145 121.575,225.006 121.300 C 224.836 120.964,225.089 120.800,225.776 120.800 C 226.339 120.800,226.800 120.975,226.800 121.190 C 226.800 121.414,227.336 121.473,228.062 121.328 C 228.870 121.166,229.234 121.221,229.074 121.480 C 228.921 121.728,229.209 121.811,229.818 121.694 C 230.645 121.536,230.771 121.630,230.568 122.252 C 230.394 122.786,230.432 122.850,230.700 122.477 C 231.241 121.724,233.327 122.291,233.015 123.106 C 232.829 123.591,232.896 123.618,233.348 123.243 C 234.038 122.670,238.404 124.431,238.394 125.278 C 238.389 125.692,238.316 125.687,238.044 125.257 C 237.832 124.924,237.605 124.869,237.452 125.115 C 237.316 125.336,237.504 125.631,237.870 125.772 C 238.236 125.912,238.676 125.800,238.847 125.523 C 239.068 125.167,239.275 125.310,239.554 126.010 C 239.771 126.554,239.966 126.730,239.987 126.400 C 240.019 125.908,240.120 125.925,240.552 126.494 C 240.842 126.875,241.174 127.093,241.290 126.976 C 241.689 126.578,245.906 131.633,247.201 134.063 C 248.245 136.022,248.390 136.561,247.948 136.840 C 247.517 137.114,247.549 137.189,248.100 137.194 C 248.906 137.201,249.041 137.836,248.300 138.135 C 248.017 138.249,248.122 138.351,248.543 138.368 C 249.003 138.388,249.205 138.610,249.074 138.951 C 248.958 139.254,249.057 139.697,249.294 139.934 C 249.603 140.243,249.581 140.541,249.214 140.983 C 248.788 141.496,248.812 141.600,249.351 141.600 C 250.113 141.600,250.206 142.434,249.520 143.120 C 249.147 143.493,249.191 143.600,249.720 143.600 C 250.536 143.600,250.693 145.811,249.900 146.142 C 249.536 146.293,249.591 146.505,250.100 146.919 C 250.690 147.399,250.800 148.183,250.800 151.924 C 250.800 155.714,250.698 156.425,250.100 156.803 C 249.599 157.121,249.542 157.306,249.900 157.457 C 250.497 157.707,250.578 159.600,249.992 159.600 C 249.757 159.600,249.691 160.023,249.836 160.600 C 250.035 161.392,249.932 161.607,249.343 161.632 C 248.922 161.649,248.817 161.751,249.100 161.865 C 249.686 162.102,249.779 163.200,249.213 163.200 C 248.999 163.200,248.929 163.470,249.055 163.800 C 249.182 164.130,249.125 164.400,248.929 164.400 C 248.732 164.400,248.571 164.728,248.571 165.129 C 248.571 168.720,237.263 181.075,235.164 179.778 C 234.859 179.589,234.780 179.643,234.951 179.921 C 235.296 180.479,232.949 181.743,232.143 181.434 C 231.822 181.310,231.660 181.374,231.785 181.576 C 232.079 182.051,230.549 182.539,229.942 182.164 C 229.632 181.973,229.585 182.052,229.801 182.401 C 230.042 182.792,229.905 182.868,229.262 182.700 C 228.787 182.576,228.500 182.638,228.623 182.837 C 228.746 183.037,228.487 183.200,228.047 183.200 C 227.607 183.200,227.141 183.372,227.011 183.583 C 226.881 183.793,226.508 183.863,226.182 183.738 C 225.856 183.613,225.361 183.700,225.081 183.932 C 224.785 184.179,224.344 184.212,224.022 184.013 C 223.676 183.800,223.255 183.888,222.893 184.250 C 222.531 184.611,221.995 184.724,221.458 184.551 C 220.986 184.399,220.420 184.331,220.200 184.399 C 219.980 184.468,203.915 184.588,184.500 184.667 L 149.200 184.809 149.200 152.671 C 149.200 134.995,149.320 120.413,149.467 120.267 C 149.874 119.859,219.600 119.945,219.600 120.353 M241.875 174.322 C 241.284 174.939,240.800 175.603,240.800 175.797 C 240.800 175.992,241.115 175.800,241.500 175.370 C 243.479 173.163,243.773 172.340,241.875 174.322 M276.800 182.200 C 275.837 183.181,275.140 184.073,275.250 184.183 C 275.360 184.293,276.237 183.581,277.200 182.600 C 278.163 181.619,278.860 180.727,278.750 180.617 C 278.640 180.507,277.763 181.219,276.800 182.200 M228.347 214.114 C 229.528 214.219,230.612 214.496,230.757 214.731 C 230.918 214.992,231.242 215.021,231.589 214.807 C 231.920 214.602,232.451 214.613,232.862 214.833 C 233.250 215.041,233.710 215.187,233.884 215.158 C 234.699 215.022,235.223 215.239,234.990 215.616 C 234.822 215.888,235.110 215.937,235.826 215.758 C 236.549 215.576,236.831 215.626,236.659 215.904 C 236.494 216.172,236.714 216.243,237.262 216.100 C 237.891 215.935,238.040 216.011,237.812 216.380 C 237.582 216.752,237.724 216.815,238.350 216.616 C 238.843 216.459,239.200 216.520,239.200 216.760 C 239.200 216.988,239.447 217.080,239.748 216.964 C 240.050 216.849,240.569 217.026,240.901 217.358 C 241.233 217.690,241.596 217.870,241.708 217.758 C 242.199 217.268,245.547 219.274,245.337 219.932 C 245.172 220.450,245.212 220.478,245.512 220.058 C 246.068 219.280,248.040 220.584,247.738 221.530 C 247.563 222.079,247.598 222.096,247.932 221.626 C 248.440 220.909,249.672 221.746,249.349 222.589 C 249.237 222.880,249.368 223.257,249.641 223.425 C 249.986 223.639,250.059 223.530,249.881 223.066 C 249.398 221.809,250.322 222.403,252.417 224.694 C 255.548 228.120,256.689 229.966,255.974 230.448 C 255.512 230.758,255.542 230.811,256.129 230.717 C 257.121 230.558,259.158 235.127,258.330 235.652 C 257.927 235.907,257.968 235.989,258.500 235.994 C 259.306 236.001,259.441 236.636,258.700 236.935 C 258.375 237.066,258.423 237.148,258.836 237.168 C 259.566 237.205,260.594 241.029,260.171 242.132 C 260.025 242.512,260.108 242.800,260.365 242.800 C 260.869 242.800,260.963 244.512,260.869 251.974 C 260.835 254.710,260.670 257.050,260.503 257.174 C 260.337 257.298,260.161 258.285,260.114 259.368 C 260.067 260.450,259.887 261.440,259.714 261.568 C 259.541 261.695,259.396 261.980,259.392 262.200 C 259.357 264.000,258.714 265.546,258.085 265.344 C 257.504 265.158,257.491 265.189,258.000 265.553 C 259.033 266.292,255.722 272.179,252.118 276.010 C 249.186 279.127,248.166 279.876,248.681 278.534 C 248.859 278.070,248.786 277.961,248.441 278.175 C 248.168 278.343,248.042 278.734,248.161 279.043 C 248.433 279.752,245.448 281.800,244.761 281.376 C 244.481 281.203,244.380 281.244,244.521 281.472 C 244.813 281.944,242.113 283.317,241.563 282.977 C 241.352 282.847,241.230 282.954,241.290 283.216 C 241.351 283.477,240.958 283.765,240.417 283.855 C 239.877 283.946,239.295 284.241,239.123 284.510 C 238.952 284.780,238.809 284.843,238.806 284.651 C 238.803 284.459,238.558 284.503,238.263 284.748 C 237.968 284.993,237.598 285.065,237.441 284.908 C 237.285 284.751,237.000 284.876,236.809 285.186 C 236.511 285.668,236.360 285.667,235.754 285.174 C 235.365 284.858,235.174 284.813,235.330 285.072 C 235.727 285.735,234.877 286.162,234.229 285.624 C 233.823 285.287,233.633 285.337,233.443 285.831 C 233.289 286.233,232.945 286.388,232.546 286.235 C 232.190 286.098,231.654 286.189,231.354 286.438 C 231.049 286.691,230.352 286.774,229.767 286.627 C 229.166 286.477,228.482 286.566,228.154 286.838 C 227.777 287.151,226.810 287.226,225.293 287.060 C 224.032 286.923,206.395 286.810,186.100 286.809 L 149.200 286.808 149.200 250.437 C 149.200 221.718,149.305 214.023,149.700 213.860 C 150.314 213.606,225.352 213.848,228.347 214.114 M283.800 300.000 C 282.717 301.100,281.642 302.000,281.411 302.000 C 281.181 302.000,280.755 302.380,280.465 302.845 C 279.582 304.258,282.821 301.659,285.170 299.069 C 286.818 297.251,285.878 297.891,283.800 300.000 M22.000 376.600 C 23.195 377.810,24.263 378.800,24.373 378.800 C 24.483 378.800,23.595 377.810,22.400 376.600 C 21.205 375.390,20.137 374.400,20.027 374.400 C 19.917 374.400,20.805 375.390,22.000 376.600 M376.981 377.300 L 375.400 379.000 377.100 377.419 C 378.681 375.948,378.984 375.600,378.681 375.600 C 378.616 375.600,377.851 376.365,376.981 377.300 " stroke="none" fill="#fcfcfc" fill-rule="evenodd"></path><path id="path1" d="M132.332 4.300 C 169.365 4.356,229.845 4.356,266.732 4.300 C 303.620 4.244,273.320 4.198,199.400 4.198 C 125.480 4.198,95.300 4.244,132.332 4.300 M19.334 19.448 C 17.978 20.851,16.951 22.000,17.051 22.000 C 17.400 22.000,21.263 18.230,21.645 17.517 C 22.179 16.518,22.104 16.581,19.334 19.448 M378.354 17.500 C 378.765 18.252,381.289 20.688,382.600 21.599 C 383.040 21.904,382.235 20.950,380.812 19.477 C 378.072 16.644,377.741 16.377,378.354 17.500 M4.198 200.000 C 4.198 274.470,4.244 304.935,4.300 267.700 C 4.356 230.465,4.356 169.535,4.300 132.300 C 4.244 95.065,4.198 125.530,4.198 200.000 M395.798 200.000 C 395.798 274.470,395.844 304.935,395.900 267.700 C 395.956 230.465,395.956 169.535,395.900 132.300 C 395.844 95.065,395.798 125.530,395.798 200.000 M228.900 87.076 C 229.285 87.176,229.915 87.176,230.300 87.076 C 230.685 86.975,230.370 86.893,229.600 86.893 C 228.830 86.893,228.515 86.975,228.900 87.076 M149.796 152.500 L 149.800 184.600 183.200 184.603 L 216.600 184.607 183.302 184.501 L 150.005 184.395 149.899 152.398 L 149.793 120.400 149.796 152.500 M250.144 152.000 C 250.144 154.090,250.212 154.945,250.294 153.900 C 250.376 152.855,250.376 151.145,250.294 150.100 C 250.212 149.055,250.144 149.910,250.144 152.000 M149.698 250.500 L 149.796 287.000 149.900 250.702 L 150.004 214.404 187.702 214.300 L 225.400 214.196 187.500 214.098 L 149.600 214.000 149.698 250.500 M301.809 252.361 C 301.541 253.580,301.835 258.768,302.192 259.126 C 302.306 259.240,302.400 257.503,302.400 255.267 C 302.400 251.078,302.251 250.346,301.809 252.361 M228.720 320.080 C 229.093 320.453,229.307 320.453,229.680 320.080 C 230.053 319.707,229.947 319.600,229.200 319.600 C 228.453 319.600,228.347 319.707,228.720 320.080 M220.933 320.489 C 222.024 320.778,222.594 320.766,222.913 320.447 C 223.242 320.118,222.840 320.011,221.380 320.041 L 219.400 320.083 220.933 320.489 M19.188 380.554 C 21.744 383.166,22.598 383.864,21.571 382.500 C 20.439 380.998,18.161 378.717,17.400 378.323 C 16.960 378.095,17.765 379.099,19.188 380.554 M380.898 379.835 C 380.181 380.400,379.406 381.253,379.175 381.731 C 378.811 382.485,378.869 382.467,379.612 381.600 C 380.084 381.050,380.949 380.201,381.535 379.714 C 383.018 378.481,382.488 378.582,380.898 379.835 M132.100 395.900 C 169.445 395.956,230.555 395.956,267.900 395.900 C 305.245 395.844,274.690 395.798,200.000 395.798 C 125.310 395.798,94.755 395.844,132.100 395.900 " stroke="none" fill="#cccccc" fill-rule="evenodd"></path><path id="path2" d="M64.138 3.906 C 63.884 4.068,124.762 4.200,199.423 4.200 C 274.084 4.200,334.862 4.078,334.485 3.928 C 333.553 3.558,64.719 3.536,64.138 3.906 M338.867 4.350 C 338.512 4.575,338.735 4.674,339.527 4.644 C 340.184 4.620,340.638 4.465,340.537 4.300 C 340.295 3.905,339.532 3.928,338.867 4.350 M361.633 6.132 C 362.326 6.683,365.569 8.274,365.382 7.971 C 365.135 7.571,362.240 6.000,361.749 6.000 C 361.594 6.000,361.542 6.060,361.633 6.132 M35.800 7.111 C 35.140 7.490,34.525 7.845,34.433 7.900 C 34.342 7.955,34.343 8.076,34.436 8.169 C 34.529 8.262,35.324 7.903,36.202 7.371 C 38.008 6.278,37.651 6.047,35.800 7.111 M47.000 7.200 C 46.496 7.417,46.422 7.544,46.800 7.544 C 47.130 7.544,47.760 7.389,48.200 7.200 C 48.704 6.983,48.778 6.856,48.400 6.856 C 48.070 6.856,47.440 7.011,47.000 7.200 M375.143 20.300 C 375.644 21.015,376.139 21.600,376.241 21.600 C 376.587 21.600,375.650 20.140,374.937 19.567 C 374.436 19.165,374.496 19.378,375.143 20.300 M378.400 23.759 C 378.400 23.861,378.985 24.356,379.700 24.857 C 380.622 25.504,380.835 25.564,380.433 25.063 C 379.860 24.350,378.400 23.413,378.400 23.759 M392.926 37.002 C 393.378 37.983,393.814 38.719,393.897 38.636 C 394.122 38.411,392.940 35.734,392.493 35.458 C 392.280 35.326,392.475 36.021,392.926 37.002 M7.029 47.429 C 6.881 48.015,6.838 48.572,6.932 48.666 C 7.027 48.760,7.224 48.358,7.371 47.771 C 7.519 47.185,7.562 46.628,7.468 46.534 C 7.373 46.440,7.176 46.842,7.029 47.429 M395.400 59.838 C 395.400 60.367,395.535 60.800,395.700 60.800 C 395.865 60.800,396.000 60.451,396.000 60.024 C 396.000 59.597,395.865 59.164,395.700 59.062 C 395.535 58.960,395.400 59.309,395.400 59.838 M3.843 64.233 C 3.507 65.109,3.591 335.237,3.928 336.085 C 4.078 336.462,4.200 275.307,4.200 200.185 C 4.200 125.063,4.174 63.600,4.143 63.600 C 4.111 63.600,3.976 63.885,3.843 64.233 M395.800 200.000 C 395.800 274.978,395.935 336.240,396.100 336.138 C 396.265 336.036,396.400 274.774,396.400 200.000 C 396.400 125.226,396.265 63.964,396.100 63.862 C 395.935 63.760,395.800 125.022,395.800 200.000 M108.501 203.900 L 108.405 320.800 164.903 320.760 C 195.976 320.738,220.950 320.576,220.400 320.400 C 219.850 320.224,194.515 320.062,164.101 320.040 L 108.801 320.000 108.699 203.500 L 108.597 87.000 108.501 203.900 M149.800 120.400 C 149.962 120.662,161.737 120.800,183.824 120.800 C 206.075 120.800,217.600 120.664,217.600 120.400 C 217.600 120.136,205.992 120.000,183.576 120.000 C 160.996 120.000,149.636 120.135,149.800 120.400 M233.500 180.629 C 231.949 181.470,232.125 181.761,233.700 180.959 C 235.208 180.193,235.475 179.994,234.967 180.016 C 234.765 180.025,234.105 180.301,233.500 180.629 M284.314 207.804 C 284.540 208.247,285.144 208.967,285.656 209.404 C 286.731 210.324,286.183 209.451,284.651 207.805 L 283.901 207.000 284.314 207.804 M250.805 223.800 C 251.644 224.976,252.828 226.105,253.020 225.913 C 253.113 225.821,252.524 225.128,251.711 224.373 C 250.899 223.618,250.492 223.360,250.805 223.800 M260.920 250.000 C 260.920 251.210,260.995 251.705,261.087 251.100 C 261.178 250.495,261.178 249.505,261.087 248.900 C 260.995 248.295,260.920 248.790,260.920 250.000 M301.867 250.667 C 301.720 250.813,301.611 251.308,301.625 251.767 C 301.649 252.533,301.682 252.523,302.034 251.642 C 302.426 250.663,302.344 250.189,301.867 250.667 M301.600 258.176 C 301.600 258.713,301.747 259.244,301.928 259.355 C 302.108 259.467,302.177 259.027,302.082 258.379 C 301.872 256.949,301.600 256.835,301.600 258.176 M282.602 300.398 C 282.203 300.839,282.062 301.200,282.289 301.200 C 282.792 301.200,283.790 300.057,283.521 299.788 C 283.415 299.682,283.002 299.956,282.602 300.398 M223.000 320.400 C 222.864 320.620,223.123 320.800,223.576 320.800 C 224.029 320.800,224.400 320.620,224.400 320.400 C 224.400 320.180,224.141 320.000,223.824 320.000 C 223.507 320.000,223.136 320.180,223.000 320.400 M395.400 340.162 C 395.400 340.691,395.535 341.040,395.700 340.938 C 395.865 340.836,396.000 340.403,396.000 339.976 C 396.000 339.549,395.865 339.200,395.700 339.200 C 395.535 339.200,395.400 339.633,395.400 340.162 M380.000 374.800 C 379.450 375.230,379.197 375.586,379.438 375.591 C 379.679 375.596,380.202 375.240,380.600 374.800 C 381.512 373.792,381.288 373.792,380.000 374.800 M381.762 378.862 L 381.000 379.724 382.100 379.016 C 383.234 378.286,383.449 378.000,382.862 378.000 C 382.676 378.000,382.181 378.388,381.762 378.862 M374.606 380.288 L 373.904 381.400 374.830 380.511 C 375.339 380.022,375.655 379.522,375.532 379.399 C 375.409 379.276,374.992 379.676,374.606 380.288 M35.200 392.366 C 35.200 392.732,37.229 393.704,37.477 393.457 C 37.572 393.361,37.099 393.008,36.425 392.672 C 35.751 392.336,35.200 392.199,35.200 392.366 M59.062 395.700 C 59.164 395.865,59.597 396.000,60.024 396.000 C 60.451 396.000,60.800 395.865,60.800 395.700 C 60.800 395.535,60.367 395.400,59.838 395.400 C 59.309 395.400,58.960 395.535,59.062 395.700 M339.200 395.700 C 339.200 395.865,339.549 396.000,339.976 396.000 C 340.403 396.000,340.836 395.865,340.938 395.700 C 341.040 395.535,340.691 395.400,340.162 395.400 C 339.633 395.400,339.200 395.535,339.200 395.700 M63.862 396.100 C 64.104 396.492,335.896 396.492,336.138 396.100 C 336.240 395.935,274.978 395.800,200.000 395.800 C 125.022 395.800,63.760 395.935,63.862 396.100 " stroke="none" fill="#dcdcdc" fill-rule="evenodd"></path><path id="path3" d="M376.340 21.404 C 376.752 22.263,377.818 23.290,378.800 23.774 C 379.130 23.936,379.008 23.739,378.529 23.335 C 378.050 22.931,377.275 22.150,376.806 21.600 C 376.173 20.856,376.053 20.806,376.340 21.404 M261.759 94.900 C 261.601 95.175,261.612 95.274,261.783 95.119 C 261.955 94.965,262.381 95.124,262.730 95.473 C 263.201 95.944,263.407 95.979,263.531 95.607 C 263.838 94.687,262.247 94.052,261.759 94.900 M265.751 96.879 C 265.585 97.148,265.659 97.211,265.938 97.038 C 266.192 96.881,266.400 96.937,266.400 97.162 C 266.400 97.388,266.774 97.772,267.230 98.016 C 267.979 98.417,268.020 98.384,267.641 97.677 C 267.123 96.709,266.119 96.285,265.751 96.879 M149.391 152.400 C 149.391 170.110,149.440 177.355,149.500 168.500 C 149.560 159.645,149.560 145.155,149.500 136.300 C 149.440 127.445,149.391 134.690,149.391 152.400 M235.352 124.077 C 235.185 124.348,235.258 124.412,235.538 124.238 C 235.792 124.081,236.000 124.173,236.000 124.443 C 236.000 124.713,236.118 124.815,236.263 124.670 C 236.408 124.525,236.768 124.607,237.063 124.852 C 237.365 125.103,237.600 125.129,237.600 124.913 C 237.600 124.270,235.676 123.554,235.352 124.077 M242.825 128.631 C 243.581 129.528,244.281 130.197,244.380 130.117 C 244.479 130.038,243.860 129.304,243.005 128.487 L 241.450 127.000 242.825 128.631 M250.546 151.800 C 250.547 154.000,250.614 154.849,250.695 153.687 C 250.776 152.524,250.776 150.724,250.693 149.687 C 250.611 148.649,250.545 149.600,250.546 151.800 M245.481 170.239 C 245.086 170.768,244.908 171.200,245.085 171.200 C 245.434 171.200,246.538 169.601,246.328 169.400 C 246.257 169.333,245.877 169.711,245.481 170.239 M276.181 182.500 L 274.600 184.200 276.300 182.619 C 277.881 181.148,278.184 180.800,277.881 180.800 C 277.816 180.800,277.051 181.565,276.181 182.500 M149.392 250.600 C 149.392 270.620,149.440 278.751,149.500 268.670 C 149.559 258.588,149.559 242.208,149.500 232.270 C 149.440 222.331,149.392 230.580,149.392 250.600 M252.996 274.807 C 252.858 275.030,252.601 275.124,252.426 275.016 C 252.094 274.811,251.136 275.762,250.629 276.800 C 250.467 277.130,250.781 276.916,251.327 276.326 C 251.872 275.735,252.401 275.334,252.502 275.435 C 252.603 275.536,252.914 275.345,253.192 275.010 C 253.470 274.674,253.597 274.400,253.473 274.400 C 253.349 274.400,253.134 274.583,252.996 274.807 M294.061 286.625 C 293.794 287.211,293.766 287.545,293.995 287.403 C 294.582 287.040,295.288 285.600,294.878 285.600 C 294.686 285.600,294.318 286.061,294.061 286.625 M389.847 368.428 C 388.849 370.117,389.196 370.217,390.282 368.552 C 390.766 367.808,391.030 367.200,390.868 367.200 C 390.705 367.200,390.246 367.752,389.847 368.428 M20.562 375.942 C 20.981 376.414,21.487 376.800,21.686 376.800 C 22.249 376.800,21.650 376.054,20.678 375.544 C 19.806 375.087,19.805 375.090,20.562 375.942 M368.200 390.000 C 367.540 390.437,367.107 390.796,367.239 390.797 C 367.605 390.801,370.000 389.564,370.000 389.371 C 370.000 389.010,369.354 389.236,368.200 390.000 " stroke="none" fill="#e4e4e4" fill-rule="evenodd"></path><path id="path4" d="M35.500 7.829 C 34.005 8.640,34.096 8.978,35.600 8.200 C 36.260 7.859,36.800 7.494,36.800 7.390 C 36.800 7.132,36.757 7.147,35.500 7.829 M363.200 7.379 C 363.200 7.489,363.740 7.859,364.400 8.200 C 365.060 8.541,365.600 8.731,365.600 8.621 C 365.600 8.511,365.060 8.141,364.400 7.800 C 363.740 7.459,363.200 7.269,363.200 7.379 M33.149 8.822 C 32.847 9.274,32.250 9.695,31.822 9.757 C 31.394 9.819,30.973 10.080,30.888 10.337 C 30.802 10.595,30.566 10.702,30.363 10.577 C 30.160 10.452,29.886 10.631,29.754 10.975 C 29.622 11.319,29.283 11.600,29.000 11.600 C 28.717 11.600,28.388 11.854,28.269 12.165 C 28.150 12.475,29.361 11.898,30.959 10.882 C 32.558 9.866,33.867 8.802,33.867 8.517 C 33.867 7.827,33.792 7.858,33.149 8.822 M366.133 8.531 C 366.133 8.808,367.442 9.866,369.041 10.882 C 370.639 11.898,371.850 12.475,371.731 12.165 C 371.612 11.854,371.264 11.600,370.957 11.600 C 370.651 11.600,370.400 11.420,370.400 11.200 C 370.400 10.980,370.149 10.800,369.843 10.800 C 369.536 10.800,369.178 10.519,369.046 10.175 C 368.914 9.831,368.625 9.661,368.405 9.797 C 368.184 9.933,367.583 9.591,367.068 9.036 C 366.554 8.481,366.133 8.254,366.133 8.531 M41.666 8.750 C 41.239 9.021,41.264 9.139,41.787 9.340 C 42.147 9.478,42.340 9.427,42.216 9.226 C 42.092 9.025,42.307 8.778,42.695 8.677 C 43.189 8.548,43.220 8.481,42.800 8.453 C 42.470 8.430,41.960 8.564,41.666 8.750 M357.600 8.786 C 357.600 9.014,357.855 9.200,358.167 9.200 C 358.478 9.200,358.824 9.425,358.935 9.700 C 359.087 10.077,359.145 10.080,359.168 9.714 C 359.186 9.447,358.840 9.035,358.400 8.800 C 357.858 8.510,357.600 8.505,357.600 8.786 M362.660 11.413 C 362.791 11.755,362.994 11.939,363.111 11.823 C 363.227 11.706,363.970 11.984,364.761 12.440 C 365.629 12.940,365.883 13.005,365.400 12.604 C 363.892 11.351,362.385 10.695,362.660 11.413 M372.800 18.316 C 372.800 18.477,373.153 18.828,373.585 19.098 C 374.232 19.502,374.332 19.489,374.154 19.025 C 373.922 18.420,372.800 17.833,372.800 18.316 M22.181 22.459 C 20.695 24.018,20.907 24.247,22.537 22.844 C 23.226 22.250,24.190 20.800,23.895 20.800 C 23.822 20.800,23.051 21.546,22.181 22.459 M380.902 26.415 C 381.172 26.847,381.523 27.200,381.684 27.200 C 382.167 27.200,381.580 26.078,380.975 25.846 C 380.511 25.668,380.498 25.768,380.902 26.415 M12.100 28.265 C 11.825 28.376,11.600 28.722,11.600 29.033 C 11.600 29.345,11.420 29.600,11.200 29.600 C 10.980 29.600,10.800 29.851,10.800 30.157 C 10.800 30.464,10.519 30.822,10.175 30.954 C 9.831 31.086,9.661 31.375,9.797 31.595 C 9.933 31.816,9.557 32.449,8.960 33.002 C 8.363 33.555,7.986 34.119,8.121 34.255 C 8.257 34.390,8.101 35.019,7.774 35.651 C 7.447 36.283,7.269 36.800,7.379 36.800 C 7.787 36.800,8.683 34.581,8.493 34.044 C 8.385 33.739,8.455 33.586,8.648 33.706 C 8.842 33.825,9.847 32.590,10.881 30.961 C 11.916 29.333,12.726 28.014,12.681 28.032 C 12.637 28.049,12.375 28.154,12.100 28.265 M389.135 30.988 C 390.161 32.602,391.166 33.821,391.368 33.696 C 391.570 33.571,391.633 33.738,391.506 34.068 C 391.374 34.412,391.499 34.667,391.800 34.667 C 392.524 34.667,392.075 33.668,391.122 33.158 C 390.678 32.920,390.433 32.490,390.558 32.166 C 390.680 31.848,390.427 31.374,389.989 31.100 C 389.555 30.829,389.200 30.381,389.200 30.104 C 389.200 29.827,389.020 29.600,388.800 29.600 C 388.580 29.600,388.400 29.349,388.400 29.043 C 388.400 28.736,388.146 28.388,387.835 28.269 C 387.525 28.150,388.110 29.373,389.135 30.988 M13.311 33.300 C 12.449 34.414,12.354 34.793,12.996 34.546 C 13.347 34.411,13.538 34.205,13.421 34.087 C 13.303 33.970,13.407 33.632,13.652 33.337 C 13.897 33.042,14.008 32.800,13.898 32.800 C 13.788 32.800,13.524 33.025,13.311 33.300 M386.224 33.387 C 386.651 33.710,386.867 33.980,386.704 33.987 C 386.541 33.994,386.673 34.315,386.996 34.700 C 387.320 35.085,387.872 35.760,388.222 36.200 C 388.981 37.153,388.611 36.369,387.323 34.300 C 386.810 33.475,386.178 32.800,385.919 32.800 C 385.659 32.800,385.796 33.064,386.224 33.387 M8.590 42.030 C 8.446 42.487,8.433 42.967,8.563 43.097 C 8.694 43.227,8.800 43.023,8.800 42.643 C 8.800 42.263,8.978 42.063,9.195 42.197 C 9.422 42.337,9.489 42.177,9.353 41.821 C 9.038 41.001,8.906 41.037,8.590 42.030 M108.997 203.400 C 108.997 267.640,109.044 293.860,109.100 261.668 C 109.156 229.475,109.156 176.915,109.100 144.868 C 109.044 112.820,108.997 139.160,108.997 203.400 M228.100 87.487 C 228.705 87.578,229.695 87.578,230.300 87.487 C 230.905 87.395,230.410 87.320,229.200 87.320 C 227.990 87.320,227.495 87.395,228.100 87.487 M233.541 87.701 C 233.743 87.903,234.333 88.001,234.854 87.919 C 235.655 87.793,235.598 87.737,234.487 87.552 C 233.693 87.421,233.319 87.479,233.541 87.701 M237.062 88.100 C 237.164 88.265,237.586 88.400,238.000 88.400 C 238.414 88.400,238.836 88.265,238.938 88.100 C 239.040 87.935,238.618 87.800,238.000 87.800 C 237.382 87.800,236.960 87.935,237.062 88.100 M280.655 109.800 C 280.782 110.130,281.016 110.400,281.176 110.400 C 281.336 110.400,281.467 110.130,281.467 109.800 C 281.467 109.470,281.232 109.200,280.946 109.200 C 280.647 109.200,280.523 109.456,280.655 109.800 M281.854 111.398 C 281.981 111.726,282.245 111.896,282.442 111.774 C 283.007 111.425,282.860 110.800,282.213 110.800 C 281.856 110.800,281.715 111.035,281.854 111.398 M283.600 113.551 C 283.600 113.798,283.774 114.000,283.987 114.000 C 284.201 114.000,284.271 114.270,284.145 114.600 C 284.018 114.930,284.004 115.200,284.114 115.200 C 284.640 115.200,284.686 114.003,284.176 113.580 C 283.768 113.241,283.600 113.233,283.600 113.551 M218.000 120.400 C 217.532 120.702,217.643 120.789,218.500 120.794 C 219.105 120.797,219.600 120.620,219.600 120.400 C 219.600 119.894,218.783 119.894,218.000 120.400 M289.200 128.176 C 289.200 128.493,289.383 128.866,289.607 129.004 C 289.830 129.142,289.892 129.451,289.745 129.689 C 289.581 129.955,289.663 130.008,289.958 129.826 C 290.318 129.603,290.325 129.392,289.985 128.982 C 289.735 128.681,289.647 128.247,289.789 128.018 C 289.931 127.788,289.857 127.600,289.624 127.600 C 289.391 127.600,289.200 127.859,289.200 128.176 M289.829 130.800 C 290.019 131.130,290.125 131.788,290.064 132.262 C 290.003 132.736,290.098 133.214,290.276 133.324 C 290.818 133.658,290.566 131.203,290.005 130.684 C 289.588 130.297,289.552 130.320,289.829 130.800 M245.606 131.820 C 245.603 132.051,245.816 132.456,246.080 132.720 C 246.344 132.984,246.421 133.200,246.251 133.200 C 246.082 133.200,246.227 133.485,246.575 133.832 C 246.923 134.180,247.105 134.630,246.980 134.832 C 246.855 135.035,246.931 135.200,247.149 135.200 C 247.368 135.200,247.665 135.574,247.810 136.030 C 247.954 136.487,248.159 136.775,248.263 136.670 C 248.368 136.565,247.999 135.607,247.443 134.540 C 246.181 132.118,245.614 131.279,245.606 131.820 M290.667 134.267 C 290.304 134.630,290.328 136.308,290.700 136.538 C 290.865 136.640,291.000 136.111,291.000 135.362 C 291.000 134.613,290.985 134.000,290.967 134.000 C 290.948 134.000,290.813 134.120,290.667 134.267 M290.967 138.142 C 290.852 138.440,290.815 139.835,290.885 141.242 L 291.011 143.800 291.205 140.699 C 291.400 137.596,291.356 137.127,290.967 138.142 M290.854 148.276 C 290.825 149.638,290.935 150.836,291.100 150.938 C 291.265 151.040,291.347 150.286,291.283 149.262 C 291.084 146.088,290.911 145.691,290.854 148.276 M290.554 152.577 C 290.432 152.894,290.403 153.479,290.489 153.877 C 290.587 154.328,290.724 154.112,290.854 153.300 C 291.071 151.938,290.930 151.596,290.554 152.577 M248.199 164.848 C 248.335 165.205,248.159 165.784,247.809 166.134 C 247.458 166.485,247.178 166.868,247.186 166.986 C 247.236 167.743,247.133 168.010,246.571 168.571 C 246.226 168.917,246.133 169.200,246.365 169.200 C 247.113 169.200,248.925 165.165,248.408 164.651 C 248.069 164.315,248.016 164.365,248.199 164.848 M285.800 169.200 C 285.243 170.300,284.892 171.200,285.022 171.200 C 285.468 171.200,286.361 170.095,286.114 169.848 C 285.978 169.711,286.107 169.600,286.400 169.600 C 286.693 169.600,286.813 169.479,286.665 169.332 C 286.518 169.184,286.672 168.644,287.008 168.132 C 287.344 167.619,287.437 167.200,287.216 167.200 C 286.995 167.200,286.357 168.100,285.800 169.200 M242.881 173.618 C 242.572 174.113,242.546 174.400,242.809 174.400 C 243.038 174.400,243.332 174.122,243.462 173.783 C 243.822 172.845,243.433 172.734,242.881 173.618 M268.400 188.522 C 267.410 189.225,266.552 190.070,266.494 190.400 C 266.427 190.779,266.672 190.669,267.158 190.100 C 267.582 189.605,268.124 189.200,268.364 189.200 C 268.604 189.200,268.800 189.020,268.800 188.800 C 268.800 188.580,269.051 188.400,269.357 188.400 C 269.664 188.400,270.018 188.130,270.145 187.800 C 270.433 187.049,270.535 187.007,268.400 188.522 M263.842 191.668 C 264.030 191.972,263.922 192.056,263.532 191.906 C 263.183 191.772,262.933 191.901,262.933 192.217 C 262.933 192.619,263.123 192.655,263.678 192.358 C 264.313 192.018,264.366 191.200,263.753 191.200 C 263.643 191.200,263.683 191.411,263.842 191.668 M281.848 206.383 C 282.041 206.563,282.650 206.829,283.200 206.974 C 284.132 207.220,284.146 207.204,283.400 206.735 C 282.481 206.156,281.321 205.893,281.848 206.383 M285.200 209.400 C 285.946 210.170,286.647 210.800,286.757 210.800 C 286.867 210.800,286.346 210.170,285.600 209.400 C 284.854 208.630,284.153 208.000,284.043 208.000 C 283.933 208.000,284.454 208.630,285.200 209.400 M287.202 211.113 C 287.203 211.271,287.608 211.859,288.102 212.419 C 288.596 212.979,288.880 213.249,288.734 213.019 C 288.469 212.601,288.400 212.318,288.400 211.643 C 288.400 211.446,288.130 211.182,287.800 211.055 C 287.470 210.929,287.201 210.954,287.202 211.113 M289.473 213.754 C 289.349 214.077,289.500 214.551,289.808 214.806 C 290.264 215.185,290.336 215.107,290.196 214.381 C 289.973 213.220,289.752 213.028,289.473 213.754 M168.730 213.900 C 179.142 213.959,196.062 213.959,206.330 213.900 C 216.599 213.840,208.080 213.792,187.400 213.792 C 166.720 213.792,158.319 213.841,168.730 213.900 M248.697 221.654 C 248.970 221.995,249.060 222.421,248.897 222.601 C 248.733 222.781,248.826 222.798,249.103 222.639 C 249.388 222.475,249.699 222.592,249.820 222.908 C 249.938 223.215,250.297 223.467,250.617 223.467 C 251.414 223.467,251.399 223.445,249.700 222.165 C 248.875 221.543,248.423 221.313,248.697 221.654 M253.065 225.895 C 252.767 226.377,253.421 227.328,253.926 227.149 C 254.195 227.053,254.154 226.742,253.810 226.276 C 253.517 225.878,253.181 225.706,253.065 225.895 M254.739 228.347 C 255.212 228.758,255.600 229.298,255.600 229.547 C 255.600 229.796,255.790 230.000,256.023 230.000 C 256.256 230.000,256.128 229.462,255.736 228.800 C 255.346 228.140,254.769 227.600,254.453 227.600 C 254.055 227.600,254.143 227.830,254.739 228.347 M253.200 273.800 C 252.795 274.288,252.815 274.400,253.308 274.400 C 253.642 274.400,254.018 274.130,254.145 273.800 C 254.271 273.470,254.223 273.200,254.036 273.200 C 253.850 273.200,253.474 273.470,253.200 273.800 M251.604 276.196 C 251.332 276.523,250.980 276.711,250.821 276.613 C 250.663 276.515,250.533 276.700,250.533 277.025 C 250.533 277.462,250.774 277.388,251.467 276.737 C 251.980 276.255,252.400 275.802,252.400 275.730 C 252.400 275.440,252.071 275.633,251.604 276.196 M235.372 285.245 C 235.233 285.470,234.822 285.542,234.460 285.404 C 233.931 285.202,233.899 285.253,234.300 285.656 C 234.670 286.029,234.917 286.043,235.249 285.711 C 235.496 285.464,235.946 285.358,236.249 285.474 C 236.552 285.590,236.800 285.596,236.800 285.486 C 236.800 285.058,235.612 284.857,235.372 285.245 M231.375 286.040 C 231.215 286.299,230.586 286.382,229.851 286.241 C 228.954 286.069,228.770 286.112,229.200 286.394 C 230.071 286.965,231.029 286.888,231.600 286.200 C 231.874 285.870,231.997 285.600,231.873 285.600 C 231.749 285.600,231.525 285.798,231.375 286.040 M226.200 286.800 L 224.200 287.074 226.076 287.137 C 227.108 287.172,228.064 287.020,228.200 286.800 C 228.336 286.580,228.392 286.428,228.324 286.463 C 228.256 286.497,227.300 286.649,226.200 286.800 M285.562 297.507 C 283.364 299.790,283.238 300.342,285.311 298.610 C 287.057 297.150,287.937 295.992,287.287 296.007 C 287.129 296.010,286.353 296.685,285.562 297.507 M272.000 307.636 C 269.906 308.832,268.715 309.646,269.400 309.413 C 269.840 309.263,270.376 309.109,270.590 309.070 C 270.805 309.032,271.207 308.791,271.483 308.536 C 271.760 308.280,272.214 307.990,272.493 307.890 C 272.772 307.791,272.910 307.616,272.800 307.502 C 272.690 307.387,272.330 307.448,272.000 307.636 M266.466 310.350 C 266.039 310.621,266.064 310.739,266.587 310.940 C 267.022 311.107,267.145 311.035,266.955 310.727 C 266.762 310.415,266.893 310.350,267.355 310.527 C 267.763 310.684,267.942 310.630,267.797 310.395 C 267.501 309.916,267.170 309.905,266.466 310.350 M7.604 364.008 C 7.842 364.453,7.947 364.963,7.836 365.142 C 7.726 365.320,7.886 365.467,8.193 365.467 C 8.664 365.467,8.660 365.290,8.166 364.333 C 7.843 363.710,7.488 363.200,7.376 363.200 C 7.264 363.200,7.367 363.564,7.604 364.008 M11.941 364.393 C 12.391 365.159,12.964 365.855,13.214 365.938 C 13.464 366.021,13.387 365.754,13.042 365.345 C 12.697 364.935,12.125 364.240,11.769 363.800 C 11.414 363.360,11.491 363.627,11.941 364.393 M388.066 363.551 C 387.772 363.737,387.549 364.049,387.569 364.245 C 387.590 364.440,387.337 364.915,387.007 365.300 C 386.678 365.685,386.532 366.000,386.684 366.000 C 386.836 366.000,386.744 366.216,386.480 366.480 C 386.216 366.744,386.000 367.144,386.000 367.369 C 386.000 367.804,386.499 367.125,387.961 364.700 C 388.914 363.119,388.924 363.007,388.066 363.551 M8.985 367.091 C 9.553 367.618,9.912 368.219,9.783 368.427 C 9.655 368.635,9.831 368.914,10.175 369.046 C 10.519 369.178,10.800 369.536,10.800 369.843 C 10.800 370.149,10.959 370.400,11.153 370.400 C 11.348 370.400,11.601 370.760,11.716 371.200 C 11.831 371.640,12.114 372.000,12.344 372.000 C 12.574 372.000,11.924 370.680,10.898 369.067 C 9.873 367.453,8.791 366.133,8.493 366.133 C 8.175 366.133,8.378 366.528,8.985 367.091 M388.433 370.147 C 387.500 371.657,387.419 372.000,388.000 372.000 C 388.220 372.000,388.400 371.640,388.400 371.200 C 388.400 370.760,388.580 370.400,388.800 370.400 C 389.020 370.400,389.200 370.119,389.200 369.776 C 389.200 369.407,389.388 369.269,389.662 369.438 C 389.948 369.615,390.015 369.548,389.838 369.262 C 389.431 368.603,389.358 368.649,388.433 370.147 M377.137 377.600 C 376.446 378.260,376.054 378.800,376.266 378.800 C 376.477 378.800,377.168 378.260,377.800 377.600 C 378.432 376.940,378.824 376.400,378.671 376.400 C 378.518 376.400,377.828 376.940,377.137 377.600 M22.399 377.798 C 22.914 378.348,23.425 378.709,23.532 378.601 C 23.798 378.335,22.379 376.800,21.868 376.800 C 21.644 376.800,21.883 377.249,22.399 377.798 M30.476 384.366 C 30.568 384.677,31.084 385.206,31.622 385.541 C 32.380 386.014,32.465 386.021,32.000 385.575 C 31.670 385.259,31.154 384.730,30.854 384.400 C 30.415 383.917,30.341 383.910,30.476 384.366 M33.200 386.460 C 33.530 386.799,34.520 387.480,35.400 387.973 C 36.280 388.466,36.640 388.580,36.200 388.227 C 35.760 387.874,35.085 387.320,34.700 386.996 C 34.315 386.673,34.000 386.518,34.000 386.653 C 34.000 386.788,33.685 386.661,33.300 386.371 C 32.673 385.899,32.663 385.908,33.200 386.460 M366.480 386.480 C 366.216 386.744,366.000 386.827,366.000 386.664 C 366.000 386.502,365.613 386.730,365.139 387.171 C 364.666 387.612,364.145 387.890,363.981 387.788 C 363.818 387.687,363.580 387.876,363.453 388.207 C 363.248 388.740,363.346 388.742,364.311 388.224 C 366.086 387.269,367.832 386.005,367.380 386.003 C 367.149 386.001,366.744 386.216,366.480 386.480 M28.269 387.835 C 28.388 388.146,28.736 388.400,29.043 388.400 C 29.349 388.400,29.600 388.580,29.600 388.800 C 29.600 389.020,29.851 389.200,30.157 389.200 C 30.464 389.200,30.822 389.481,30.954 389.825 C 31.086 390.169,31.369 390.343,31.583 390.211 C 31.796 390.079,32.331 390.331,32.771 390.771 C 33.211 391.211,33.650 391.442,33.747 391.285 C 33.844 391.128,32.602 390.161,30.988 389.135 C 29.373 388.110,28.150 387.525,28.269 387.835 M370.481 388.172 C 368.701 389.430,368.580 389.583,369.560 389.326 C 370.022 389.205,370.400 388.948,370.400 388.753 C 370.400 388.559,370.760 388.400,371.200 388.400 C 371.644 388.400,372.000 388.133,372.000 387.800 C 372.000 387.063,372.076 387.044,370.481 388.172 " stroke="none" fill="#ececec" fill-rule="evenodd"></path></g></svg>