<svg id="svg" version="1.1" xmlns="http://www.w3.org/2000/svg" xmlns:xlink="http://www.w3.org/1999/xlink" width="400" height="323" viewBox="0, 0, 400,323"><g id="svgg"><path id="path0" d="M189.750 38.269 C 168.829 39.024,156.356 40.124,142.627 42.425 C 135.519 43.616,126.478 45.606,122.085 46.947 C 121.791 47.036,121.779 47.016,121.983 46.770 C 122.578 46.053,121.914 46.444,120.632 47.564 C 98.670 66.765,80.818 92.271,74.834 113.000 C 70.929 126.528,69.246 137.990,66.831 167.500 C 66.550 170.938,66.181 175.100,66.010 176.750 C 65.706 179.703,65.691 180.170,65.885 180.667 C 65.938 180.804,66.847 184.667,67.905 189.250 C 68.962 193.833,70.056 198.559,70.334 199.751 C 71.523 204.837,73.366 208.054,80.267 217.083 C 87.250 226.221,88.806 229.131,89.754 234.824 C 92.905 253.743,105.065 265.878,127.917 272.911 C 131.270 273.943,131.247 273.940,129.917 273.215 C 121.481 268.622,117.506 258.192,115.987 236.667 C 115.714 232.792,115.592 214.188,115.816 210.594 C 116.455 200.374,119.030 193.844,126.303 184.000 C 139.280 166.436,155.429 154.315,174.167 148.072 L 177.250 147.045 177.833 145.940 C 182.638 136.838,197.337 131.671,210.807 134.351 C 219.052 135.991,226.541 141.037,228.736 146.433 L 229.120 147.376 231.685 148.243 C 251.387 154.899,269.356 169.140,281.748 187.917 C 288.897 198.749,289.985 203.939,289.647 225.609 C 289.255 250.827,286.384 263.594,279.566 270.440 L 278.050 271.963 279.150 271.587 C 299.016 264.801,310.803 251.739,313.996 232.970 C 314.731 228.648,315.747 226.052,317.963 222.833 C 319.186 221.057,325.212 213.110,326.750 211.245 C 327.300 210.579,327.983 209.632,328.269 209.142 C 328.554 208.651,329.202 207.537,329.709 206.667 C 331.582 203.447,332.562 201.090,333.081 198.556 C 333.228 197.838,333.979 194.550,334.749 191.250 C 335.520 187.950,336.221 184.931,336.307 184.541 C 336.417 184.049,336.395 183.363,336.236 182.291 C 335.764 179.107,335.321 174.620,334.502 164.750 C 330.916 121.529,327.106 106.678,314.425 86.500 C 306.852 74.448,294.658 60.052,283.250 49.694 C 281.875 48.446,280.369 47.043,279.902 46.577 L 279.055 45.730 276.142 45.033 C 261.665 41.566,245.305 39.538,223.333 38.486 C 219.858 38.319,193.134 38.147,189.750 38.269 M121.860 110.652 C 132.639 112.987,140.840 121.258,143.194 132.167 C 144.013 135.962,143.688 142.000,142.463 145.742 L 142.083 146.901 139.750 148.812 C 134.635 153.003,128.318 158.703,124.624 162.460 L 122.832 164.283 121.124 164.600 C 117.177 165.332,111.867 164.975,107.917 163.711 C 89.025 157.665,82.600 134.306,95.709 119.325 C 101.967 112.174,112.602 108.646,121.860 110.652 M293.097 110.502 C 309.664 113.335,319.793 130.383,314.431 146.409 C 309.796 160.259,294.720 168.067,280.667 163.896 L 279.250 163.475 277.167 161.436 C 273.293 157.643,269.553 154.253,264.907 150.322 L 263.417 149.061 262.775 147.322 C 255.390 127.307,272.175 106.925,293.097 110.502 M121.500 118.434 C 116.295 119.826,114.502 126.390,118.253 130.322 C 122.356 134.624,129.523 132.397,130.533 126.506 C 131.410 121.395,126.576 117.076,121.500 118.434 M279.127 118.490 C 273.959 120.142,272.361 126.417,276.108 130.345 C 280.175 134.609,287.276 132.399,288.367 126.529 C 289.318 121.418,284.119 116.895,279.127 118.490 M193.186 137.908 C 193.300 138.022,198.558 140.209,200.228 140.837 C 201.616 141.358,201.752 141.380,202.478 141.186 C 203.173 141.001,210.485 138.062,210.653 137.900 C 210.691 137.863,206.760 137.833,201.917 137.833 C 197.074 137.833,193.145 137.867,193.186 137.908 M201.417 196.268 C 195.209 197.621,184.795 204.763,178.608 211.908 C 177.681 212.979,177.758 212.980,179.167 211.915 C 186.691 206.230,197.448 201.770,203.667 201.757 C 208.579 201.747,216.381 204.652,223.500 209.143 C 224.554 209.808,225.604 210.469,225.833 210.613 C 226.804 211.219,220.731 205.449,218.910 204.034 C 211.539 198.308,205.123 195.459,201.417 196.268 M139.583 275.937 C 142.420 276.624,151.944 278.240,152.480 278.125 C 152.803 278.056,150.525 277.279,149.000 276.939 C 147.457 276.594,145.874 276.376,142.174 275.998 C 138.422 275.615,138.236 275.610,139.583 275.937 M260.250 276.179 C 257.164 276.490,253.842 277.199,252.870 277.754 C 252.570 277.925,252.529 277.985,252.750 277.930 C 252.933 277.885,254.058 277.694,255.250 277.505 C 257.853 277.093,262.718 276.171,262.818 276.071 C 262.916 275.973,261.844 276.018,260.250 276.179 " stroke="none" fill="#fcfcfc" fill-rule="evenodd"></path><path id="path1" d="M111.333 45.347 C 95.011 46.729,75.448 52.050,65.388 57.842 C 63.860 58.721,62.848 59.381,59.776 61.497 C 59.578 61.633,58.530 62.421,57.445 63.247 C 56.361 64.074,55.269 64.900,55.018 65.083 C 54.543 65.431,52.978 66.687,52.833 66.836 C 52.788 66.884,52.112 67.442,51.333 68.076 C 50.554 68.711,49.879 69.273,49.833 69.325 C 49.788 69.376,49.262 69.829,48.667 70.330 C 31.061 85.142,0.500 118.132,0.500 122.325 C 0.500 123.000,3.786 126.539,8.250 130.672 C 10.108 132.392,12.987 135.033,13.317 135.320 C 13.686 135.641,16.338 138.046,17.834 139.417 C 18.434 139.967,19.710 141.129,20.670 142.000 C 22.460 143.624,23.638 144.707,25.831 146.749 C 26.520 147.390,28.246 149.086,29.667 150.517 L 32.250 153.120 34.457 157.768 C 35.672 160.325,37.519 164.404,38.562 166.833 C 42.847 176.811,44.842 180.872,48.508 187.083 C 48.725 187.450,48.947 187.787,49.001 187.833 C 49.056 187.879,49.584 188.592,50.175 189.417 C 55.548 196.916,61.146 197.350,63.655 190.462 C 64.601 187.867,65.547 183.066,65.733 179.917 C 65.777 179.183,65.966 177.046,66.155 175.167 C 66.343 173.287,66.761 168.487,67.084 164.500 C 70.856 117.897,75.681 101.690,92.769 78.222 C 100.437 67.691,116.735 49.934,121.790 46.605 C 122.493 46.142,122.473 45.878,121.708 45.539 C 120.972 45.212,114.368 45.090,111.333 45.347 M281.000 45.273 C 278.850 45.701,278.850 45.702,281.542 48.105 C 293.744 58.999,306.511 73.907,314.425 86.500 C 327.106 106.678,330.916 121.529,334.502 164.750 C 335.323 174.654,335.764 179.106,336.242 182.327 C 336.370 183.195,336.442 183.960,336.400 184.026 C 336.212 184.331,337.358 189.082,338.042 190.833 C 340.594 197.367,346.275 196.680,351.596 189.195 C 353.803 186.090,357.185 179.952,359.416 175.000 C 359.933 173.854,360.542 172.512,360.771 172.017 C 360.999 171.522,361.774 169.759,362.494 168.100 C 363.213 166.441,365.129 162.383,366.752 159.083 C 368.374 155.783,369.717 152.991,369.735 152.879 C 369.792 152.532,373.791 148.514,377.338 145.241 C 378.998 143.709,381.793 141.161,382.233 140.779 C 382.426 140.611,382.921 140.161,383.333 139.778 C 383.746 139.396,384.833 138.408,385.749 137.583 C 386.665 136.758,387.790 135.739,388.249 135.317 C 388.708 134.896,390.057 133.659,391.247 132.567 C 394.555 129.534,397.109 127.090,398.619 125.513 L 399.988 124.083 399.994 121.973 L 400.000 119.862 398.592 117.933 C 395.493 113.688,390.997 108.336,385.488 102.333 C 384.689 101.462,383.829 100.525,383.578 100.250 C 379.493 95.778,366.722 82.895,362.253 78.739 C 341.971 59.876,333.676 54.804,314.750 49.689 C 307.484 47.726,301.005 46.530,292.000 45.493 C 290.343 45.302,281.721 45.129,281.000 45.273 M112.083 110.401 C 91.365 113.839,81.813 137.702,94.500 154.330 C 100.577 162.296,111.286 166.426,121.124 164.600 L 122.832 164.283 124.624 162.460 C 128.318 158.703,134.635 153.003,139.750 148.812 L 142.083 146.901 142.463 145.742 C 145.028 137.905,143.508 128.520,138.536 121.504 C 132.781 113.382,121.826 108.784,112.083 110.401 M284.250 110.411 C 266.949 113.152,256.679 130.803,262.775 147.322 L 263.417 149.061 264.907 150.322 C 269.553 154.253,273.293 157.643,277.167 161.436 L 279.250 163.475 280.667 163.896 C 298.321 169.136,315.739 156.068,315.739 137.583 C 315.739 120.581,300.897 107.774,284.250 110.411 M125.531 118.496 C 128.988 119.564,131.135 123.001,130.533 126.506 C 129.523 132.397,122.356 134.624,118.253 130.322 C 113.171 124.994,118.505 116.326,125.531 118.496 M283.318 118.482 C 288.649 120.141,290.205 126.718,286.176 130.561 C 280.451 136.022,271.367 129.417,274.754 122.257 C 276.245 119.104,280.000 117.450,283.318 118.482 M201.080 133.693 C 190.884 134.263,181.344 139.289,177.833 145.940 L 177.250 147.045 174.167 148.072 C 155.429 154.315,139.280 166.436,126.303 184.000 C 119.030 193.844,116.455 200.374,115.816 210.594 C 115.592 214.188,115.714 232.792,115.987 236.667 C 117.501 258.117,122.083 269.985,130.138 273.322 C 130.427 273.441,130.614 273.617,130.555 273.712 C 130.490 273.818,130.531 273.834,130.660 273.754 C 130.778 273.681,130.924 273.710,130.991 273.820 C 131.274 274.276,135.519 275.447,137.364 275.578 C 137.793 275.608,138.224 275.682,138.322 275.743 C 138.420 275.803,138.572 275.809,138.659 275.755 C 138.820 275.656,144.657 276.206,146.667 276.509 C 149.091 276.875,152.667 277.859,152.667 278.159 C 152.667 278.231,153.660 278.743,154.875 279.296 C 165.140 283.968,172.853 284.943,194.821 284.342 C 200.506 284.186,204.292 284.188,212.250 284.350 C 220.140 284.510,223.298 284.512,226.351 284.360 C 236.948 283.829,243.726 282.256,251.250 278.578 C 254.868 276.810,257.409 276.253,262.667 276.075 C 274.448 275.676,279.695 272.745,283.833 264.250 C 288.267 255.150,290.297 237.273,289.642 213.109 C 289.290 200.157,286.256 192.881,275.764 179.833 C 263.610 164.718,248.592 153.955,231.685 148.243 L 229.120 147.376 228.736 146.433 C 225.545 138.590,213.416 133.003,201.080 133.693 M210.653 137.900 C 210.485 138.062,203.173 141.001,202.478 141.186 C 201.752 141.380,201.616 141.358,200.228 140.837 C 198.558 140.209,193.300 138.022,193.186 137.908 C 193.145 137.867,197.074 137.833,201.917 137.833 C 206.760 137.833,210.691 137.863,210.653 137.900 M205.313 196.440 C 208.925 197.379,213.969 200.196,218.910 204.034 C 220.731 205.449,226.804 211.219,225.833 210.613 C 225.604 210.469,224.554 209.808,223.500 209.143 C 216.381 204.652,208.579 201.747,203.667 201.757 C 197.448 201.770,186.691 206.230,179.167 211.915 C 177.758 212.980,177.681 212.979,178.608 211.908 C 183.939 205.752,192.115 199.747,198.750 197.117 C 201.545 196.009,203.056 195.853,205.313 196.440 " stroke="none" fill="#040404" fill-rule="evenodd"></path><path id="path2" d="" stroke="none" fill="#c010080" fill-rule="evenodd"></path><path id="path3" d="" stroke="none" fill="#408480" fill-rule="evenodd"></path><path id="path4" d="" stroke="none" fill="#400484" fill-rule="evenodd"></path></g></svg>