<svg width="36" height="36" viewBox="0 0 36 36" fill="none" xmlns="http://www.w3.org/2000/svg">
<g clip-path="url(#clip0_343_1051)">
<rect width="36" height="36" fill="#FAF5FF"/>
<g clip-path="url(#clip1_343_1051)">
<path d="M28.438 12.7386C28.3712 11.2909 27.2353 10.1551 25.81 10.1551H9.84123C8.39358 10.1551 7.19092 11.38 7.19092 12.8277V21.4022C7.19092 22.8053 8.32677 24.008 9.7076 24.0748V26.3243C9.7076 26.8588 10.0417 27.371 10.5539 27.5937C10.7098 27.6605 10.9103 27.7051 11.0884 27.7051C11.4671 27.7051 11.8011 27.5715 12.0684 27.3265L15.3869 24.0748H25.81C27.2576 24.0748 28.4603 22.8499 28.4603 21.4022L28.438 12.7386ZM27.3244 21.4022C27.3244 22.2486 26.6117 22.9612 25.7877 22.9612H14.9192L11.2889 26.5247C11.2666 26.547 11.2221 26.5915 11.1107 26.5915C11.0662 26.5915 11.0439 26.5915 11.0439 26.5915L11.0216 26.5692C10.9103 26.5247 10.8435 26.4356 10.8435 26.3243V22.9612H9.86351C9.03946 22.9612 8.32677 22.2263 8.32677 21.4022V12.8277C8.32677 11.9814 9.03946 11.2687 9.86351 11.2687H25.8322C26.6563 11.2687 27.3244 11.9368 27.3467 12.7609V21.4022H27.3244Z" fill="#5531A7"/>
<path d="M15.9214 13.6517H11.0662C10.7544 13.6517 10.5094 13.8967 10.5094 14.2085C10.5094 14.5203 10.7544 14.7653 11.0662 14.7653H15.9214C16.2332 14.7653 16.4782 14.5203 16.4782 14.2085C16.4782 13.8967 16.2332 13.6517 15.9214 13.6517Z" fill="#5531A7"/>
<path d="M16.7009 16.1239H11.0662C10.7544 16.1239 10.5094 16.3689 10.5094 16.6807C10.5094 16.9925 10.7544 17.2375 11.0662 17.2375H16.7009C17.0127 17.2375 17.2577 16.9925 17.2577 16.6807C17.2577 16.3689 17.0127 16.1239 16.7009 16.1239Z" fill="#5531A7"/>
<path d="M11.0662 19.7987H17.5249C17.8367 19.7987 18.0817 19.5537 18.0817 19.2419C18.0817 18.9301 17.8367 18.6851 17.5249 18.6851H11.0662C10.7544 18.6851 10.5094 18.9301 10.5094 19.2419C10.5094 19.5537 10.7544 19.7987 11.0662 19.7987Z" fill="#5531A7"/>
<path d="M22.7587 18.6183H22.6697C22.3801 18.6183 22.1574 18.8633 22.1574 19.1305V19.3087C22.1574 19.5982 22.4024 19.821 22.6697 19.821H22.7587C23.0483 19.821 23.271 19.5982 23.271 19.3087V19.1305C23.271 18.841 23.026 18.6183 22.7587 18.6183Z" fill="#5531A7"/>
<path d="M23.6942 13.3177C23.4269 13.2063 23.1151 13.1395 22.781 13.1395C22.3356 13.1395 21.957 13.2286 21.6229 13.429C21.3556 13.5849 21.1329 13.7854 20.9547 14.0749C20.9102 14.164 20.8657 14.2531 20.8211 14.3421C20.6652 14.6539 20.8879 15.0103 21.2443 15.0326C21.4447 15.0326 21.6452 14.9212 21.7343 14.7208C21.7565 14.6762 21.7788 14.6094 21.8233 14.5649C22.0015 14.2753 22.3133 14.1194 22.7587 14.1194C23.1374 14.1194 23.3824 14.2085 23.5605 14.409C23.6719 14.5426 23.7164 14.6762 23.7164 14.8321C23.7164 14.988 23.6496 15.1216 23.5383 15.2553C23.4046 15.3889 23.271 15.5225 23.0928 15.6339C22.8256 15.8121 22.5806 16.0571 22.4247 16.3466C22.291 16.6138 22.2465 16.9479 22.2242 17.2597C22.202 17.5493 22.4247 17.7942 22.7142 17.7942H22.7587C23.026 17.7942 23.2487 17.5938 23.3155 17.3711C23.3378 17.1261 23.3601 16.8366 23.4492 16.7252C23.5605 16.5693 23.6942 16.4802 23.8501 16.3689C24.006 16.2352 24.1619 16.1239 24.2955 15.968C24.5627 15.6784 24.7409 15.2776 24.7409 14.8767C24.7409 14.4758 24.6073 14.0749 24.3178 13.7631C24.1396 13.5626 23.9391 13.4067 23.6942 13.3177Z" fill="#5531A7"/>
<path d="M28.438 12.7386C28.3712 11.2909 27.2353 10.1551 25.81 10.1551H9.84123C8.39358 10.1551 7.19092 11.38 7.19092 12.8277V21.4022C7.19092 22.8053 8.32677 24.008 9.7076 24.0748V26.3243C9.7076 26.8588 10.0417 27.371 10.5539 27.5937C10.7098 27.6605 10.9103 27.7051 11.0884 27.7051C11.4671 27.7051 11.8011 27.5715 12.0684 27.3265L15.3869 24.0748H25.81C27.2576 24.0748 28.4603 22.8499 28.4603 21.4022L28.438 12.7386ZM27.3244 21.4022C27.3244 22.2486 26.6117 22.9612 25.7877 22.9612H14.9192L11.2889 26.5247C11.2666 26.547 11.2221 26.5915 11.1107 26.5915C11.0662 26.5915 11.0439 26.5915 11.0439 26.5915L11.0216 26.5692C10.9103 26.5247 10.8435 26.4356 10.8435 26.3243V22.9612H9.86351C9.03946 22.9612 8.32677 22.2263 8.32677 21.4022V12.8277C8.32677 11.9814 9.03946 11.2687 9.86351 11.2687H25.8322C26.6563 11.2687 27.3244 11.9368 27.3467 12.7609V21.4022H27.3244Z" stroke="#5531A7" stroke-width="0.5"/>
<path d="M15.9214 13.6517H11.0662C10.7544 13.6517 10.5094 13.8967 10.5094 14.2085C10.5094 14.5203 10.7544 14.7653 11.0662 14.7653H15.9214C16.2332 14.7653 16.4782 14.5203 16.4782 14.2085C16.4782 13.8967 16.2332 13.6517 15.9214 13.6517Z" stroke="#5531A7" stroke-width="0.5"/>
<path d="M16.7009 16.1239H11.0662C10.7544 16.1239 10.5094 16.3689 10.5094 16.6807C10.5094 16.9925 10.7544 17.2375 11.0662 17.2375H16.7009C17.0127 17.2375 17.2577 16.9925 17.2577 16.6807C17.2577 16.3689 17.0127 16.1239 16.7009 16.1239Z" stroke="#5531A7" stroke-width="0.5"/>
<path d="M11.0662 19.7987H17.5249C17.8367 19.7987 18.0817 19.5537 18.0817 19.2419C18.0817 18.9301 17.8367 18.6851 17.5249 18.6851H11.0662C10.7544 18.6851 10.5094 18.9301 10.5094 19.2419C10.5094 19.5537 10.7544 19.7987 11.0662 19.7987Z" stroke="#5531A7" stroke-width="0.5"/>
<path d="M22.7587 18.6183H22.6697C22.3801 18.6183 22.1574 18.8633 22.1574 19.1305V19.3087C22.1574 19.5982 22.4024 19.821 22.6697 19.821H22.7587C23.0483 19.821 23.271 19.5982 23.271 19.3087V19.1305C23.271 18.841 23.026 18.6183 22.7587 18.6183Z" stroke="#5531A7" stroke-width="0.5"/>
<path d="M23.6942 13.3177C23.4269 13.2063 23.1151 13.1395 22.781 13.1395C22.3356 13.1395 21.957 13.2286 21.6229 13.429C21.3556 13.5849 21.1329 13.7854 20.9547 14.0749C20.9102 14.164 20.8657 14.2531 20.8211 14.3421C20.6652 14.6539 20.8879 15.0103 21.2443 15.0326C21.4447 15.0326 21.6452 14.9212 21.7343 14.7208C21.7565 14.6762 21.7788 14.6094 21.8233 14.5649C22.0015 14.2753 22.3133 14.1194 22.7587 14.1194C23.1374 14.1194 23.3824 14.2085 23.5605 14.409C23.6719 14.5426 23.7164 14.6762 23.7164 14.8321C23.7164 14.988 23.6496 15.1216 23.5383 15.2553C23.4046 15.3889 23.271 15.5225 23.0928 15.6339C22.8256 15.8121 22.5806 16.0571 22.4247 16.3466C22.291 16.6138 22.2465 16.9479 22.2242 17.2597C22.202 17.5493 22.4247 17.7942 22.7142 17.7942H22.7587C23.026 17.7942 23.2487 17.5938 23.3155 17.3711C23.3378 17.1261 23.3601 16.8366 23.4492 16.7252C23.5605 16.5693 23.6942 16.4802 23.8501 16.3689C24.006 16.2352 24.1619 16.1239 24.2955 15.968C24.5627 15.6784 24.7409 15.2776 24.7409 14.8767C24.7409 14.4758 24.6073 14.0749 24.3178 13.7631C24.1396 13.5626 23.9391 13.4067 23.6942 13.3177Z" stroke="#5531A7" stroke-width="0.5"/>
</g>
</g>
<defs>
<clipPath id="clip0_343_1051">
<rect width="36" height="36" rx="18" fill="white"/>
</clipPath>
<clipPath id="clip1_343_1051">
<rect width="23" height="19" fill="white" transform="translate(6.25 9)"/>
</clipPath>
</defs>
</svg>
